<?xml version="1.0" encoding="utf-8"?>
<!-- Generator: Adobe Illustrator 27.5.0, SVG Export Plug-In . SVG Version: 6.00 Build 0)  -->
<svg version="1.1" id="Layer_1" xmlns="http://www.w3.org/2000/svg" xmlns:xlink="http://www.w3.org/1999/xlink" x="0px" y="0px"
	 viewBox="0 0 899.999 900" style="enable-background:new 0 0 899.999 900;" xml:space="preserve">
<rect x="0" y="0" style="opacity:0.43;fill:#FFCE94;" width="900" height="900"/>
<path style="fill:none;stroke:#DB926E;stroke-width:18;stroke-linecap:round;stroke-linejoin:round;stroke-miterlimit:10;" d="
	M356.883,209.248c-14.415,6.819-24.598,9.575-37.315,6.686c-11.334-2.575-18.081-11.949-20.011-29.855l7.403-7.014"/>
<path style="fill:none;stroke:#FFB287;stroke-width:18;stroke-linecap:round;stroke-linejoin:round;stroke-miterlimit:10;" d="
	M365.68,216.941c-14.415,6.819-28.496,12.861-41.213,9.972c-11.334-2.574-18.666-2.658-30.513-17.214l6.339-17.857"/>
<polygon style="fill:#FFB287;" points="311.152,190.968 311.734,213.661 326.188,221.054 324.991,224.316 305.083,223.204 
	299.922,201.433 "/>
<path style="fill:#AF8A80;" d="M342.747,316.427c-7.243-0.001-13.242-5.895-13.372-13.14l-2.46-137.38
	c-0.064-3.573,1.268-6.957,3.749-9.529c2.481-2.572,5.815-4.023,9.389-4.088l212.033-3.793c7.243,0,13.242,5.895,13.372,13.14
	l2.459,137.38c0.064,3.573-1.268,6.957-3.749,9.529c-2.481,2.572-5.815,4.023-9.389,4.087L342.747,316.427z"/>
<path style="fill-rule:evenodd;clip-rule:evenodd;fill:#AF8A80;" d="M799.504,0.002l-182,164.48l-8.5-8.03l-3,3.03
	c2.08,3.86,1.93,7.37,0,10.6l-40.36,39.82c-1.33,1.32-3.25,1.63-4.86,0.98l-1.01-56.16l4.8,10.76l183.18-165.48H799.504z"/>
<path style="fill-rule:evenodd;clip-rule:evenodd;fill:#888888;" d="M560.784,210.882c-0.72-0.28-1.38-0.76-1.9-1.42l-5.48-7.01
	l-16.24-22.07c0,0-33.09,30.18-34.92,30.99c-9.35,4.11-10.35-6.4-9.68-7.14c0,0,40.41-42.3,49.39-49.56
	c1.29-0.51,1.95-0.87,1.71-1.04c-0.16-0.11-0.76,0.27-1.71,1.04c-5.5,2.13-22.6,6.76-31.85,9.21c-3.46,0.91-7.04-0.95-8.29-4.3
	l-1.54-4.14l52.73-15.92l6.77,15.19v0.01L560.784,210.882z"/>
<g>
	<g>
		<path style="fill:#434051;" d="M562.197,289.854c0.158,8.849-6.952,16.217-15.8,16.375l-67.474,1.206
			c-8.848,0.158-23.328,0.417-32.176,0.575l-0.824,0.015c-8.848,0.158-20.953,0.375-26.898,0.483s-13.904,0.251-17.685,0.32
			c-3.781,0.069-8.74,0.156-11.02,0.195c-2.28,0.038-11.385,0.2-20.233,0.36l-19.394,0.35c-8.848,0.16-19.263,0.346-23.143,0.415
			c-3.88,0.069-7.185-7.115-7.343-15.963l-1.514-84.534c-0.158-8.848-0.418-23.328-0.578-32.176l-0.161-8.934
			c-0.159-8.849-0.328-18.284-0.375-20.968c-0.047-2.684,7.155-5.01,16.003-5.17l40.054-0.721
			c8.848-0.159,23.328-0.419,32.176-0.577l19.394-0.346c8.849-0.158,17.953-0.321,20.233-0.362c2.28-0.041,7.241-0.131,11.025-0.2
			c3.784-0.069,11.745-0.211,17.69-0.315s18.05-0.322,26.898-0.483l0.814-0.015c8.848-0.161,23.328-0.422,32.176-0.579l9.354-0.167
			c8.849-0.158,16.153,3.394,16.233,7.893c0.08,4.499,0.145,8.182,0.145,8.185c0,0.003,0.13,7.245,0.289,16.093l0.431,23.983
			c0.159,8.849,0.419,23.328,0.577,32.176L562.197,289.854z"/>
		
			<rect x="376.927" y="125.909" transform="matrix(-0.0179 -0.9998 0.9998 -0.0179 227.3383 671.8527)" style="fill:#FFFFFF;" width="133.418" height="196.729"/>
		<path d="M334.77,202.639l1.491,43.27c0.023,1.266-0.995,2.32-2.26,2.343l0,0c-1.266,0.023-2.32-0.995-2.343-2.26l-1.491-43.27
			c-0.023-1.266,0.995-2.32,2.26-2.343l0,0C333.693,200.356,334.747,201.373,334.77,202.639z"/>
	</g>
	<g>
		<path style="fill:#3AA1DB;" d="M487.244,223.766l-19.656-35.523c5.168-2.295,10.67-3.457,16.382-3.457
			c0.535,0,1.072,0.01,1.611,0.031c10.831,0.423,20.849,5.038,28.209,12.996c6.968,7.534,10.763,17.21,10.789,27.41L487.244,223.766
			z"/>
		<path style="fill:#F95C33;" d="M488.616,228.689l36.222,1.414c-1.626,19.996-17.739,35.868-37.728,37.183L488.616,228.689z"/>
		<path style="fill:#BFA777;" d="M462.773,261.864c-13.321-7.399-21.464-21.772-20.867-37.079
			c0.558-14.283,8.578-27.169,21.053-34.013l19.719,35.049L462.773,261.864z"/>
		<path style="fill:#FFC82C;" d="M482.171,267.231c-0.284-0.005-0.568-0.013-0.853-0.024c-5.146-0.201-9.462-1.212-14.115-3.339
			l16.457-29.809L482.171,267.231z"/>
	</g>
	<g>
		
			<line style="fill-rule:evenodd;clip-rule:evenodd;fill:none;stroke:#49555B;stroke-width:4;stroke-miterlimit:10;" x1="426.721" y1="267.241" x2="360.451" y2="268.996"/>
		
			<line style="fill-rule:evenodd;clip-rule:evenodd;fill:none;stroke:#49555B;stroke-width:4;stroke-miterlimit:10;" x1="426.581" y1="254.394" x2="360.312" y2="256.148"/>
		
			<line style="fill-rule:evenodd;clip-rule:evenodd;fill:none;stroke:#49555B;stroke-width:4;stroke-miterlimit:10;" x1="426.441" y1="241.547" x2="360.172" y2="243.301"/>
		
			<line style="fill-rule:evenodd;clip-rule:evenodd;fill:none;stroke:#49555B;stroke-width:4;stroke-miterlimit:10;" x1="426.301" y1="228.699" x2="360.032" y2="230.454"/>
		
			<line style="fill-rule:evenodd;clip-rule:evenodd;fill:none;stroke:#49555B;stroke-width:4;stroke-miterlimit:10;" x1="426.162" y1="215.852" x2="359.892" y2="217.607"/>
		
			<line style="fill-rule:evenodd;clip-rule:evenodd;fill:none;stroke:#49555B;stroke-width:4;stroke-miterlimit:10;" x1="426.022" y1="203.005" x2="359.752" y2="204.76"/>
		
			<line style="fill-rule:evenodd;clip-rule:evenodd;fill:none;stroke:#49555B;stroke-width:4;stroke-miterlimit:10;" x1="425.882" y1="190.158" x2="359.612" y2="191.913"/>
		
			<line style="fill-rule:evenodd;clip-rule:evenodd;fill:none;stroke:#49555B;stroke-width:4;stroke-miterlimit:10;" x1="425.742" y1="177.311" x2="359.473" y2="179.066"/>
	</g>
	<polygon style="opacity:0.26;fill-rule:evenodd;clip-rule:evenodd;fill:#FFFFFF;" points="441.291,140.473 386.171,309.092 
		334.601,310.022 389.721,141.393 	"/>
	<polygon style="opacity:0.26;fill-rule:evenodd;clip-rule:evenodd;fill:#FFFFFF;" points="517.951,139.092 462.831,307.723 
		429.831,308.313 484.961,139.692 	"/>
</g>
<path style="fill:#AF8A80;" d="M595.379,739.427c-0.193-3.989,25.265,7.26,27.383,18.063l17.882,55.041l10.606-2.24L675.929,900
	c0,0-36.619,1.522-37.285,0.002c-0.667-1.52-53.744-137.79-53.744-137.79L595.379,739.427z"/>
<g>
	<g>
		<g>
			<g>
				<g>
					<g>
						<path style="fill:#AF8A80;" d="M772.505,364.647c-0.179,0.786-0.64,1.43-1.243,1.84l0.166-0.728
							c0.259-1.136-0.411-2.267-1.49-2.512l0,0c-1.078-0.246-2.172,0.483-2.431,1.619l-0.166,0.728
							c-0.365-0.631-0.501-1.411-0.322-2.197c0.364-1.596,1.887-2.61,3.401-2.265C771.936,361.477,772.869,363.051,772.505,364.647z
							"/>
						<path style="fill:#AF8A80;" d="M769.939,363.247L769.939,363.247c1.078,0.246,1.748,1.376,1.49,2.512l-0.166,0.728
							l-2.016,8.845c-0.259,1.136-1.353,1.864-2.431,1.619l0,0c-1.078-0.246-1.749-1.376-1.49-2.512l2.016-8.845l0.166-0.728
							C767.766,363.73,768.86,363.001,769.939,363.247z"/>
					</g>
					<g>
						<path style="fill:#AF8A80;" d="M761.3,359.138c1.515,0.345,2.448,1.919,2.084,3.515c-0.179,0.786-0.64,1.43-1.243,1.84
							l0.166-0.728c0.259-1.136-0.411-2.267-1.49-2.512l0,0c-1.078-0.246-2.172,0.483-2.431,1.618l-0.166,0.728
							c-0.365-0.631-0.501-1.411-0.322-2.197C758.263,359.807,759.785,358.793,761.3,359.138z"/>
						<path style="fill:#AF8A80;" d="M758.221,363.6l0.166-0.728c0.259-1.136,1.353-1.864,2.431-1.618l0,0
							c1.078,0.246,1.748,1.376,1.49,2.512l-0.166,0.728l-2.016,8.845c-0.259,1.136-1.353,1.864-2.431,1.619l0,0
							c-1.078-0.246-1.749-1.376-1.49-2.512L758.221,363.6z"/>
					</g>
					<g>
						<path style="fill:#AF8A80;" d="M752.18,357.145c1.515,0.345,2.448,1.919,2.084,3.515c-0.179,0.786-0.64,1.43-1.243,1.841
							l0.166-0.728c0.259-1.136-0.411-2.267-1.49-2.512l0,0c-1.078-0.246-2.172,0.483-2.431,1.618l-0.166,0.728
							c-0.365-0.631-0.501-1.411-0.322-2.197C749.142,357.814,750.665,356.8,752.18,357.145z"/>
						<path style="fill:#AF8A80;" d="M749.1,361.607l0.166-0.728c0.259-1.136,1.353-1.864,2.431-1.618l0,0
							c1.078,0.246,1.749,1.376,1.49,2.512l-0.166,0.728l-2.016,8.845c-0.259,1.136-1.353,1.864-2.431,1.618l0,0
							c-1.078-0.246-1.749-1.376-1.49-2.512L749.1,361.607z"/>
					</g>
					<g>
						<path style="fill:#AF8A80;" d="M743.059,355.151c1.515,0.345,2.448,1.919,2.084,3.515c-0.179,0.786-0.64,1.43-1.242,1.841
							l0.166-0.728c0.259-1.136-0.411-2.267-1.49-2.512l0,0c-1.078-0.246-2.172,0.483-2.431,1.618l-0.166,0.728
							c-0.365-0.631-0.501-1.411-0.322-2.197C740.021,355.82,741.544,354.806,743.059,355.151z"/>
						<path style="fill:#AF8A80;" d="M739.979,359.613l0.166-0.728c0.259-1.136,1.353-1.864,2.431-1.618l0,0
							c1.078,0.246,1.749,1.376,1.49,2.512l-0.166,0.728l-2.016,8.845c-0.259,1.136-1.353,1.864-2.431,1.618l0,0
							c-1.078-0.246-1.749-1.376-1.49-2.512L739.979,359.613z"/>
					</g>
					<g>
						<path style="fill:#AF8A80;" d="M733.938,353.158c1.515,0.345,2.448,1.919,2.084,3.515c-0.179,0.786-0.64,1.43-1.243,1.841
							l0.166-0.728c0.259-1.136-0.411-2.267-1.49-2.512l0,0c-1.078-0.246-2.172,0.483-2.431,1.619l-0.166,0.728
							c-0.365-0.631-0.501-1.411-0.322-2.197C730.901,353.826,732.423,352.813,733.938,353.158z"/>
						<path style="fill:#AF8A80;" d="M730.859,357.62l0.166-0.728c0.259-1.136,1.353-1.864,2.431-1.619l0,0
							c1.078,0.246,1.748,1.376,1.49,2.512l-0.166,0.728l-2.016,8.845c-0.259,1.136-1.353,1.864-2.431,1.619l0,0
							c-1.078-0.246-1.749-1.376-1.49-2.512L730.859,357.62z"/>
					</g>
					<g>
						<path style="fill:#AF8A80;" d="M724.818,351.164c1.515,0.345,2.448,1.919,2.084,3.515c-0.179,0.786-0.64,1.43-1.243,1.841
							l0.166-0.728c0.259-1.136-0.411-2.267-1.49-2.512l0,0c-1.078-0.246-2.172,0.483-2.431,1.619l-0.166,0.728
							c-0.365-0.631-0.501-1.411-0.322-2.197C721.78,351.833,723.303,350.819,724.818,351.164z"/>
						<path style="fill:#AF8A80;" d="M721.738,355.626l0.166-0.728c0.259-1.136,1.353-1.864,2.431-1.619l0,0
							c1.078,0.246,1.749,1.376,1.49,2.512l-0.166,0.728l-2.016,8.845c-0.259,1.136-1.353,1.864-2.431,1.619l0,0
							c-1.078-0.246-1.749-1.376-1.49-2.512L721.738,355.626z"/>
					</g>
					<g>
						<path style="fill:#AF8A80;" d="M715.697,349.171c1.515,0.345,2.448,1.919,2.084,3.515c-0.179,0.786-0.64,1.43-1.242,1.841
							l0.166-0.728c0.259-1.136-0.411-2.267-1.49-2.512l0,0c-1.078-0.246-2.172,0.483-2.431,1.618l-0.166,0.728
							c-0.365-0.631-0.501-1.411-0.322-2.197C712.659,349.839,714.182,348.826,715.697,349.171z"/>
						<path style="fill:#AF8A80;" d="M712.617,353.633l0.166-0.728c0.259-1.136,1.353-1.864,2.431-1.618l0,0
							c1.078,0.246,1.749,1.376,1.49,2.512l-0.166,0.728l-2.016,8.845c-0.259,1.136-1.353,1.864-2.431,1.618l0,0
							c-1.078-0.246-1.749-1.376-1.49-2.512L712.617,353.633z"/>
					</g>
					<g>
						<path style="fill:#AF8A80;" d="M706.576,347.177c1.515,0.345,2.448,1.919,2.084,3.515c-0.179,0.786-0.64,1.43-1.243,1.841
							l0.166-0.728c0.259-1.136-0.411-2.267-1.49-2.512l0,0c-1.078-0.246-2.172,0.482-2.431,1.618l-0.166,0.728
							c-0.365-0.631-0.501-1.411-0.322-2.197C703.539,347.846,705.061,346.832,706.576,347.177z"/>
						<path style="fill:#AF8A80;" d="M703.497,351.639l0.166-0.728c0.259-1.136,1.353-1.864,2.431-1.618l0,0
							c1.078,0.246,1.748,1.376,1.49,2.512l-0.166,0.728l-2.016,8.845c-0.259,1.136-1.353,1.864-2.431,1.618l0,0
							c-1.078-0.246-1.749-1.376-1.49-2.512L703.497,351.639z"/>
					</g>
					<g>
						<path style="fill:#AF8A80;" d="M697.456,345.184c1.515,0.345,2.448,1.919,2.084,3.515c-0.179,0.786-0.64,1.43-1.242,1.841
							l0.166-0.728c0.259-1.136-0.411-2.267-1.49-2.512l0,0c-1.078-0.246-2.172,0.483-2.431,1.619l-0.166,0.728
							c-0.365-0.631-0.501-1.411-0.322-2.197C694.418,345.852,695.941,344.839,697.456,345.184z"/>
						<path style="fill:#AF8A80;" d="M694.376,349.646l0.166-0.728c0.259-1.136,1.353-1.864,2.431-1.619l0,0
							c1.078,0.246,1.749,1.376,1.49,2.512l-0.166,0.728l-2.016,8.845c-0.259,1.136-1.353,1.864-2.431,1.618l0,0
							c-1.078-0.246-1.749-1.376-1.49-2.512L694.376,349.646z"/>
					</g>
					<g>
						<path style="fill:#AF8A80;" d="M688.335,343.19c1.515,0.345,2.448,1.919,2.084,3.515c-0.179,0.786-0.64,1.43-1.242,1.841
							l0.166-0.728c0.259-1.136-0.411-2.267-1.49-2.512l0,0c-1.078-0.246-2.172,0.483-2.431,1.619l-0.166,0.728
							c-0.365-0.631-0.501-1.411-0.322-2.197C685.297,343.859,686.82,342.845,688.335,343.19z"/>
						<path style="fill:#AF8A80;" d="M685.255,347.652l0.166-0.728c0.259-1.136,1.353-1.864,2.431-1.619l0,0
							c1.078,0.246,1.749,1.376,1.49,2.512l-0.166,0.728l-2.016,8.845c-0.259,1.136-1.353,1.864-2.431,1.619l0,0
							c-1.078-0.246-1.749-1.376-1.49-2.512L685.255,347.652z"/>
					</g>
					<g>
						<path style="fill:#AF8A80;" d="M679.214,341.197c1.515,0.345,2.448,1.919,2.084,3.515c-0.179,0.786-0.64,1.43-1.242,1.84
							l0.166-0.728c0.259-1.136-0.411-2.266-1.49-2.512l0,0c-1.078-0.246-2.172,0.483-2.431,1.618l-0.166,0.728
							c-0.365-0.631-0.501-1.411-0.322-2.197C676.177,341.865,677.699,340.852,679.214,341.197z"/>
						<path style="fill:#AF8A80;" d="M676.135,345.658l0.166-0.728c0.259-1.136,1.353-1.864,2.431-1.618l0,0
							c1.078,0.246,1.749,1.376,1.49,2.512l-0.166,0.728l-2.016,8.845c-0.259,1.136-1.353,1.864-2.431,1.619l0,0
							c-1.078-0.246-1.749-1.376-1.49-2.512L676.135,345.658z"/>
					</g>
					<g>
						<path style="fill:#AF8A80;" d="M670.094,339.203c1.515,0.345,2.448,1.919,2.084,3.515c-0.179,0.786-0.64,1.43-1.242,1.84
							l0.166-0.728c0.259-1.136-0.411-2.266-1.49-2.512l0,0c-1.078-0.246-2.172,0.483-2.431,1.618l-0.166,0.728
							c-0.365-0.631-0.501-1.411-0.322-2.197C667.056,339.872,668.579,338.858,670.094,339.203z"/>
						<path style="fill:#AF8A80;" d="M667.014,343.665l0.166-0.728c0.259-1.136,1.353-1.864,2.431-1.618l0,0
							c1.078,0.246,1.749,1.376,1.49,2.512l-0.166,0.728l-2.016,8.845c-0.259,1.136-1.353,1.864-2.431,1.618l0,0
							c-1.078-0.246-1.749-1.376-1.49-2.512L667.014,343.665z"/>
					</g>
					<g>
						<path style="fill:#AF8A80;" d="M660.973,337.21c1.515,0.345,2.448,1.919,2.084,3.515c-0.179,0.786-0.64,1.43-1.242,1.841
							l0.166-0.728c0.259-1.136-0.411-2.267-1.49-2.512l0,0c-1.078-0.246-2.172,0.483-2.431,1.618l-0.166,0.728
							c-0.365-0.631-0.501-1.411-0.322-2.197C657.935,337.878,659.458,336.864,660.973,337.21z"/>
						<path style="fill:#AF8A80;" d="M657.893,341.671l0.166-0.728c0.259-1.136,1.353-1.864,2.431-1.618l0,0
							c1.078,0.246,1.749,1.376,1.49,2.512l-0.166,0.728l-2.016,8.845c-0.259,1.136-1.353,1.864-2.431,1.618l0,0
							c-1.078-0.246-1.749-1.376-1.49-2.512L657.893,341.671z"/>
					</g>
					<g>
						<path style="fill:#AF8A80;" d="M653.936,338.731c-0.179,0.786-0.64,1.43-1.242,1.841l0.166-0.728
							c0.259-1.136-0.411-2.267-1.49-2.512c-1.078-0.246-2.172,0.483-2.431,1.619l-0.166,0.728
							c-0.365-0.631-0.501-1.411-0.322-2.197c0.364-1.596,1.887-2.61,3.401-2.265C653.367,335.561,654.3,337.135,653.936,338.731z"
							/>
						<path style="fill:#AF8A80;" d="M651.37,337.331c1.078,0.246,1.749,1.376,1.49,2.512l-0.166,0.728l-2.016,8.845
							c-0.259,1.136-1.353,1.864-2.431,1.618c-1.078-0.246-1.749-1.376-1.49-2.512l2.016-8.845l0.166-0.728
							C649.198,337.814,650.292,337.086,651.37,337.331z"/>
					</g>
				</g>
			</g>
		</g>
	</g>
	<path style="fill:#AF8A80;" d="M817.343,160.061l-120.89-27.557c-5.537-1.262-11.048,2.203-12.31,7.739l-43.925,192.694
		c-1.157,5.074,1.663,10.117,6.403,11.897l-0.023,0.103l1.357,0.31c0.001,0,0.002,0.001,0.003,0.001l120.89,27.557
		c5.537,1.262,11.048-2.203,12.31-7.739l43.926-192.694C826.345,166.834,822.879,161.323,817.343,160.061z"/>
</g>
<path style="fill-rule:evenodd;clip-rule:evenodd;fill:#AF8A80;" d="M565.109,388.135l-46.583-13.686
	c-3.919-1.152-5.984,1.044-6.797,3.415l-0.412,1.294c-0.032,0.101-0.065,0.203-0.097,0.304l-30.154,94.716l-1.406,4.416
	c-0.012,0.219-0.05,0.429-0.115,0.633c-0.022,1.158,0.177,2.077,0.596,2.756c0.351,0.713,0.914,1.212,1.691,1.495l49.455,14.531
	c1.934,0.458,3.409-0.636,4.424-3.279l-0.267,0.837c0.149-0.288,0.265-0.56,0.345-0.815l1.309-4.111l29.984-94.184
	c0.064-0.202,0.105-0.33,0.121-0.38l0.509-1.599C568.432,391.859,568.9,389.249,565.109,388.135z"/>
<path style="fill:#AF8A80;" d="M291.631,900h36.161l34.502-107.304l-13.919-5.217c11.394-7.504,19.646-38.969,21.882-52.59
	l29.702-9.223c8.115-10.673,0.864-16.814-9.688-21.982c0,0-35.278,11.741-34.621,9.531c0.657-2.209-8.917-25.029-8.917-25.029
	l-11.186,26.159L291.631,900z"/>
<path style="fill:#AF8A80;" d="M260.734,727.866l-11.323,0.847c-0.614-3.883-2.22-7.355-4.793-10.197
	c-8.811-9.725-26.169-8.674-38.695,2.343c-7.039,6.191-11.34,14.391-11.8,22.497c-0.054,0.955-0.035,1.884,0.018,2.801
	c-4.377,6.896-11.436,13.129-18.879,16.675c-8.549-1.48-18.729,1.466-26.869,8.626c-7.039,6.191-11.34,14.391-11.8,22.496
	c-0.337,5.94,1.41,11.206,5.052,15.227c2.701,2.981,6.214,4.927,10.135,5.906l-2.024,10.418c-0.372,1.915,0.878,3.769,2.793,4.141
	c0.228,0.045,0.454,0.066,0.678,0.066c1.657,0,3.136-1.172,3.463-2.859l2.144-11.037c7.225-0.244,15.013-3.269,21.505-8.979
	c7.039-6.19,11.34-14.39,11.8-22.495c0.337-5.94-1.41-11.206-5.052-15.228l0,0c-0.449-0.496-0.926-0.957-1.418-1.397
	c0.003-0.015,0.005-0.031,0.007-0.045l6.017-5.831l6.151-4.904c0.412,0.568,0.852,1.119,1.329,1.646
	c4.045,4.465,9.892,6.659,16.246,6.659c7.485,0,15.674-3.043,22.449-9.002c6.445-5.669,10.585-13.022,11.593-20.445l11.8-0.882
	c1.945-0.146,3.404-1.84,3.259-3.786C264.375,729.18,262.686,727.725,260.734,727.866z"/>
<rect x="693.398" y="609.69" transform="matrix(0.9963 0.0864 -0.0864 0.9963 66.0798 -64.7405)" style="fill:#AF8A80;" width="174.423" height="241.95"/>
<path style="fill:none;stroke:#DB926E;stroke-width:18;stroke-linecap:round;stroke-linejoin:round;stroke-miterlimit:10;" d="
	M383.987,691.225c-15.477-3.841-26.003-4.533-37.9,0.808c-10.603,4.76-15.368,15.282-13.727,33.216l8.641,5.415"/>
<path style="fill:none;stroke:#FFB287;stroke-width:18;stroke-linecap:round;stroke-linejoin:round;stroke-miterlimit:10;" d="
	M391.094,681.947c-15.477-3.841-30.474-6.985-42.371-1.644c-10.603,4.76-17.775,6.288-26.517,22.897l9.737,16.255"/>
<polygon style="fill:#FFB287;" points="342.762,718.168 338.855,695.806 351.566,685.707 349.749,682.746 330.452,687.763 
	329.688,710.125 "/>
<g>
	
		<polyline style="fill-rule:evenodd;clip-rule:evenodd;fill:none;stroke:#262523;stroke-width:7.0644;stroke-linecap:round;stroke-linejoin:round;stroke-miterlimit:10;" points="
		148.108,817.743 155.761,778.354 228.589,707.769 	"/>
	
		<polyline style="fill-rule:evenodd;clip-rule:evenodd;fill:none;stroke:#262523;stroke-width:7.0644;stroke-linecap:round;stroke-linejoin:round;stroke-miterlimit:10;" points="
		255.883,722.953 215.301,725.988 135.887,789.302 	"/>
	<path style="opacity:0.32;fill:#E2E1DE;" d="M173.554,796.512c-3.54,3.11-7.49,5.37-11.48,6.76c-3.31,1.16-6.67,1.71-9.86,1.63
		c-5.43-0.12-10.37-2.04-13.82-5.85c-7.9-8.72-4.97-24.01,6.55-34.13c1.36-1.2,2.78-2.269,4.25-3.21c3.14-2.04,6.47-3.49,9.78-4.32
		c8.14-2.08,16.18-0.49,21.13,4.98C188.004,771.092,185.074,786.382,173.554,796.512z"/>
	
		<ellipse transform="matrix(0.7645 -0.6446 0.6446 0.7645 -419.5655 311.6372)" style="opacity:0.32;fill:#E2E1DE;" cx="216.781" cy="730.113" rx="27.773" ry="21.306"/>
	
		<ellipse transform="matrix(0.7645 -0.6446 0.6446 0.7645 -465.7294 286.4733)" style="fill:none;stroke:#3F3E3A;stroke-width:5.046;stroke-miterlimit:10;" cx="159.251" cy="780.712" rx="27.773" ry="21.306"/>
	
		<ellipse transform="matrix(0.7645 -0.6446 0.6446 0.7645 -419.5655 311.6372)" style="fill:none;stroke:#3F3E3A;stroke-width:5.046;stroke-miterlimit:10;" cx="216.781" cy="730.113" rx="27.773" ry="21.306"/>
	<path style="fill:#3F3E3A;" d="M199.126,748.886c-12.667-2.096-19.383,3.034-19.036,16.743l-11.058-10.713
		c8.163-3.575,16.015-10.481,20.543-18.068L199.126,748.886z"/>
</g>
<g>
	<g>
		<g>
			<path style="fill:#FFDE55;" d="M679.581,134.065l-43.926,192.694c-1.262,5.537,2.203,11.048,7.74,12.31l120.89,27.557
				c5.537,1.262,11.048-2.203,12.31-7.74l43.926-192.694c1.262-5.537-2.203-11.048-7.74-12.31l-120.89-27.557
				C686.354,125.063,680.843,128.528,679.581,134.065z"/>
			<g>
				<g>
					<path style="fill:#42705A;" d="M764.451,356.857c-1.08-0.246-2.173,0.485-2.432,1.621l-1.654,7.255l3.921,0.894l1.654-7.255
						C766.199,358.236,765.526,357.102,764.451,356.857z"/>
				</g>
				<path style="fill:#42705A;" d="M755.329,354.866c-1.08-0.246-2.172,0.48-2.431,1.616l-1.636,7.176l3.921,0.894l1.636-7.176
					c0.129-0.565,0.029-1.131-0.242-1.589C756.305,355.333,755.867,354.988,755.329,354.866z"/>
				<path style="fill:#42705A;" d="M746.208,352.87c-1.08-0.246-2.172,0.48-2.432,1.621l-1.617,7.091l3.921,0.894l1.617-7.091
					c0.13-0.57,0.03-1.136-0.241-1.594C747.184,353.338,746.746,352.993,746.208,352.87z"/>
				<path style="fill:#42705A;" d="M733.057,359.507l1.598-7.012c0.259-1.136,1.352-1.867,2.432-1.621
					c0.538,0.122,0.976,0.468,1.247,0.926c0.272,0.453,0.372,1.019,0.242,1.589l-1.598,7.012L733.057,359.507z"/>
				<path style="fill:#42705A;" d="M723.954,357.432l1.58-6.933c0.259-1.136,1.356-1.861,2.431-1.616
					c0.538,0.122,0.976,0.468,1.248,0.921c0.272,0.453,0.372,1.019,0.242,1.589l-1.58,6.933L723.954,357.432z"/>
				<path style="fill:#42705A;" d="M718.845,346.888c-1.075-0.245-2.173,0.486-2.432,1.621l-1.561,6.848l3.921,0.894l1.561-6.848
					c0.129-0.565,0.03-1.136-0.242-1.589C719.82,347.356,719.382,347.01,718.845,346.888z"/>
				<path style="fill:#42705A;" d="M709.723,344.897c-1.075-0.245-2.172,0.48-2.431,1.616l-1.543,6.769l3.921,0.894l1.543-6.769
					c0.129-0.565,0.029-1.131-0.242-1.589C710.698,345.365,710.26,345.02,709.723,344.897z"/>
				<path style="fill:#42705A;" d="M700.607,342.903c-1.08-0.246-2.173,0.486-2.432,1.621l-1.524,6.685l3.921,0.894l1.524-6.685
					c0.13-0.57,0.025-1.137-0.242-1.589C701.582,343.37,701.144,343.025,700.607,342.903z"/>
				<path style="fill:#42705A;" d="M687.548,349.133l1.506-6.605c0.259-1.136,1.352-1.867,2.432-1.621
					c0.538,0.123,0.976,0.468,1.247,0.926c0.268,0.452,0.372,1.019,0.242,1.589l-1.506,6.605L687.548,349.133z"/>
				<path style="fill:#42705A;" d="M682.364,338.916c-1.08-0.246-2.172,0.48-2.431,1.616l-1.488,6.526l3.921,0.894l1.488-6.526
					c0.13-0.57,0.025-1.137-0.242-1.589C683.34,339.384,682.906,339.04,682.364,338.916z"/>
				<path style="fill:#42705A;" d="M673.243,336.921c-1.08-0.246-2.173,0.485-2.432,1.621l-1.468,6.442l3.921,0.894l1.468-6.442
					c0.129-0.565,0.025-1.137-0.242-1.589C674.219,337.388,673.785,337.044,673.243,336.921z"/>
				<path style="fill:#42705A;" d="M664.121,334.93c-1.08-0.246-2.172,0.48-2.431,1.616l-1.45,6.362l3.921,0.894l1.45-6.362
					c0.129-0.565,0.024-1.132-0.242-1.589C665.097,335.398,664.664,335.054,664.121,334.93z"/>
				<path style="fill:#42705A;" d="M655,332.935c-1.075-0.245-2.173,0.485-2.432,1.621l-1.431,6.278l3.921,0.894l1.431-6.278
					c0.13-0.57,0.025-1.137-0.243-1.589C655.976,333.402,655.543,333.058,655,332.935z"/>
				<g>
					<path style="fill:#42705A;" d="M645.878,330.944c-1.075-0.245-2.172,0.48-2.431,1.616l-1.413,6.199l3.921,0.894l1.413-6.199
						C647.628,332.318,646.958,331.19,645.878,330.944z"/>
				</g>
			</g>
			<g>
				<g>
					<path style="fill:#383B42;" d="M767.943,358.469c-0.179,0.786-0.64,1.43-1.242,1.841l0.166-0.728
						c0.259-1.136-0.411-2.267-1.49-2.512l0,0c-1.078-0.246-2.172,0.483-2.431,1.618l-0.166,0.728
						c-0.365-0.631-0.501-1.411-0.322-2.197c0.364-1.596,1.887-2.61,3.401-2.264C767.373,355.299,768.306,356.873,767.943,358.469z"
						/>
					<path style="fill:#E1EEEF;" d="M765.376,357.069L765.376,357.069c1.078,0.246,1.748,1.376,1.49,2.512l-0.166,0.728
						l-2.016,8.845c-0.259,1.136-1.353,1.864-2.431,1.618l0,0c-1.078-0.246-1.749-1.376-1.49-2.512l2.016-8.845l0.166-0.728
						C763.204,357.551,764.298,356.823,765.376,357.069z"/>
				</g>
				<g>
					<path style="fill:#383B42;" d="M756.738,352.96c1.515,0.345,2.448,1.919,2.084,3.515c-0.179,0.786-0.641,1.43-1.243,1.841
						l0.166-0.728c0.259-1.136-0.411-2.267-1.49-2.512l0,0c-1.078-0.246-2.172,0.483-2.431,1.619l-0.166,0.728
						c-0.365-0.631-0.501-1.411-0.322-2.197C753.7,353.629,755.223,352.615,756.738,352.96z"/>
					<path style="fill:#E1EEEF;" d="M753.658,357.422l0.166-0.728c0.259-1.136,1.353-1.864,2.431-1.619l0,0
						c1.078,0.246,1.749,1.376,1.49,2.512l-0.166,0.728l-2.016,8.845c-0.259,1.136-1.353,1.864-2.431,1.619l0,0
						c-1.078-0.246-1.749-1.376-1.49-2.512L753.658,357.422z"/>
				</g>
				<g>
					<path style="fill:#383B42;" d="M747.617,350.967c1.515,0.345,2.448,1.919,2.084,3.515c-0.179,0.786-0.64,1.43-1.243,1.84
						l0.166-0.728c0.259-1.136-0.411-2.266-1.49-2.512l0,0c-1.078-0.246-2.172,0.483-2.431,1.619l-0.166,0.728
						c-0.365-0.631-0.501-1.411-0.322-2.197C744.58,351.635,746.102,350.621,747.617,350.967z"/>
					<path style="fill:#E1EEEF;" d="M744.538,355.428l0.166-0.728c0.259-1.136,1.353-1.864,2.431-1.619l0,0
						c1.078,0.246,1.748,1.376,1.49,2.512l-0.166,0.728l-2.016,8.845c-0.259,1.136-1.353,1.864-2.431,1.619l0,0
						c-1.078-0.246-1.749-1.376-1.49-2.512L744.538,355.428z"/>
				</g>
				<g>
					<path style="fill:#383B42;" d="M738.497,348.973c1.515,0.345,2.448,1.919,2.084,3.515c-0.179,0.786-0.64,1.43-1.242,1.84
						l0.166-0.728c0.259-1.136-0.411-2.266-1.49-2.512l0,0c-1.078-0.246-2.172,0.483-2.431,1.618l-0.166,0.728
						c-0.365-0.631-0.501-1.411-0.322-2.197C735.459,349.642,736.982,348.628,738.497,348.973z"/>
					<path style="fill:#E1EEEF;" d="M735.417,353.435l0.166-0.728c0.259-1.136,1.353-1.864,2.431-1.618l0,0
						c1.078,0.246,1.748,1.376,1.49,2.512l-0.166,0.728l-2.016,8.845c-0.259,1.136-1.353,1.864-2.431,1.619l0,0
						c-1.078-0.246-1.749-1.376-1.49-2.512L735.417,353.435z"/>
				</g>
				<g>
					<path style="fill:#383B42;" d="M729.376,346.98c1.515,0.345,2.448,1.919,2.084,3.515c-0.179,0.786-0.64,1.43-1.243,1.841
						l0.166-0.728c0.259-1.136-0.411-2.266-1.49-2.512l0,0c-1.078-0.246-2.172,0.483-2.431,1.618l-0.166,0.728
						c-0.365-0.631-0.501-1.411-0.322-2.197C726.338,347.648,727.861,346.634,729.376,346.98z"/>
					<path style="fill:#E1EEEF;" d="M726.296,351.441l0.166-0.728c0.259-1.136,1.353-1.864,2.431-1.618l0,0
						c1.078,0.246,1.749,1.376,1.49,2.512l-0.166,0.728l-2.016,8.845c-0.259,1.136-1.353,1.864-2.431,1.618l0,0
						c-1.078-0.246-1.749-1.376-1.49-2.512L726.296,351.441z"/>
				</g>
				<g>
					<path style="fill:#383B42;" d="M720.255,344.986c1.515,0.345,2.448,1.919,2.084,3.515c-0.179,0.786-0.64,1.43-1.242,1.841
						l0.166-0.728c0.259-1.136-0.411-2.267-1.49-2.512l0,0c-1.078-0.246-2.172,0.483-2.431,1.618l-0.166,0.728
						c-0.365-0.631-0.501-1.411-0.322-2.197C717.218,345.655,718.74,344.641,720.255,344.986z"/>
					<path style="fill:#E1EEEF;" d="M717.176,349.448l0.166-0.728c0.259-1.136,1.353-1.864,2.431-1.618l0,0
						c1.078,0.246,1.749,1.376,1.49,2.512l-0.166,0.728l-2.016,8.845c-0.259,1.136-1.353,1.864-2.431,1.618l0,0
						c-1.078-0.246-1.749-1.376-1.49-2.512L717.176,349.448z"/>
				</g>
				<g>
					<path style="fill:#383B42;" d="M711.135,342.992c1.515,0.345,2.448,1.919,2.084,3.515c-0.179,0.786-0.64,1.43-1.243,1.841
						l0.166-0.728c0.259-1.136-0.411-2.267-1.49-2.512l0,0c-1.078-0.246-2.172,0.483-2.431,1.619l-0.166,0.728
						c-0.365-0.631-0.501-1.411-0.322-2.197C708.097,343.661,709.62,342.647,711.135,342.992z"/>
					<path style="fill:#E1EEEF;" d="M708.055,347.454l0.166-0.728c0.259-1.136,1.353-1.864,2.431-1.619l0,0
						c1.078,0.246,1.748,1.376,1.49,2.512l-0.166,0.728l-2.016,8.845c-0.259,1.136-1.353,1.864-2.431,1.619l0,0
						c-1.078-0.246-1.749-1.376-1.49-2.512L708.055,347.454z"/>
				</g>
				<g>
					<path style="fill:#383B42;" d="M702.014,340.999c1.515,0.345,2.448,1.919,2.084,3.515c-0.179,0.786-0.64,1.43-1.242,1.841
						l0.166-0.728c0.259-1.136-0.411-2.267-1.49-2.512l0,0c-1.078-0.246-2.172,0.483-2.431,1.619l-0.166,0.728
						c-0.365-0.631-0.501-1.411-0.322-2.197C698.976,341.668,700.499,340.654,702.014,340.999z"/>
					<path style="fill:#E1EEEF;" d="M698.935,345.461l0.166-0.728c0.259-1.136,1.353-1.864,2.431-1.619l0,0
						c1.078,0.246,1.749,1.376,1.49,2.512l-0.166,0.728l-2.016,8.845c-0.259,1.136-1.353,1.864-2.431,1.619l0,0
						c-1.078-0.246-1.749-1.376-1.49-2.512L698.935,345.461z"/>
				</g>
				<g>
					<path style="fill:#383B42;" d="M692.893,339.005c1.515,0.345,2.448,1.919,2.084,3.515c-0.179,0.786-0.64,1.43-1.242,1.841
						l0.166-0.728c0.259-1.136-0.411-2.267-1.49-2.512l0,0c-1.078-0.246-2.172,0.483-2.431,1.618l-0.166,0.728
						c-0.365-0.631-0.501-1.411-0.322-2.197C689.856,339.674,691.378,338.66,692.893,339.005z"/>
					<path style="fill:#E1EEEF;" d="M689.814,343.467l0.166-0.728c0.259-1.136,1.353-1.864,2.431-1.618l0,0
						c1.078,0.246,1.749,1.376,1.49,2.512l-0.166,0.728l-2.016,8.845c-0.259,1.136-1.353,1.864-2.431,1.618l0,0
						c-1.078-0.246-1.749-1.376-1.49-2.512L689.814,343.467z"/>
				</g>
				<g>
					<path style="fill:#383B42;" d="M683.773,337.012c1.515,0.345,2.448,1.919,2.084,3.515c-0.179,0.786-0.64,1.43-1.242,1.841
						l0.166-0.728c0.259-1.136-0.411-2.267-1.49-2.512l0,0c-1.078-0.246-2.172,0.482-2.431,1.618l-0.166,0.728
						c-0.365-0.631-0.501-1.411-0.322-2.197C680.735,337.681,682.258,336.667,683.773,337.012z"/>
					<path style="fill:#E1EEEF;" d="M680.693,341.474l0.166-0.728c0.259-1.136,1.353-1.864,2.431-1.618l0,0
						c1.078,0.246,1.749,1.376,1.49,2.512l-0.166,0.728l-2.016,8.845c-0.259,1.136-1.353,1.864-2.431,1.618l0,0
						c-1.078-0.246-1.749-1.376-1.49-2.512L680.693,341.474z"/>
				</g>
				<g>
					<path style="fill:#383B42;" d="M674.652,335.018c1.515,0.345,2.448,1.919,2.084,3.515c-0.179,0.786-0.64,1.43-1.242,1.841
						l0.166-0.728c0.259-1.136-0.411-2.267-1.49-2.512l0,0c-1.078-0.246-2.172,0.483-2.431,1.619l-0.166,0.728
						c-0.365-0.631-0.501-1.411-0.322-2.197C671.614,335.687,673.137,334.673,674.652,335.018z"/>
					<path style="fill:#E1EEEF;" d="M671.573,339.48l0.166-0.728c0.259-1.136,1.353-1.864,2.431-1.619l0,0
						c1.078,0.246,1.749,1.376,1.49,2.512l-0.166,0.728l-2.016,8.845c-0.259,1.136-1.353,1.864-2.431,1.618l0,0
						c-1.078-0.246-1.749-1.376-1.49-2.512L671.573,339.48z"/>
				</g>
				<g>
					<path style="fill:#383B42;" d="M665.531,333.025c1.515,0.345,2.448,1.919,2.084,3.515c-0.179,0.786-0.64,1.43-1.242,1.841
						l0.166-0.728c0.259-1.136-0.411-2.267-1.49-2.512l0,0c-1.078-0.246-2.172,0.483-2.431,1.619l-0.166,0.728
						c-0.365-0.631-0.501-1.411-0.322-2.197C662.494,333.693,664.016,332.68,665.531,333.025z"/>
					<path style="fill:#E1EEEF;" d="M662.452,337.487l0.166-0.728c0.259-1.136,1.353-1.864,2.431-1.619l0,0
						c1.078,0.246,1.749,1.376,1.49,2.512l-0.166,0.728l-2.016,8.845c-0.259,1.136-1.353,1.864-2.431,1.619l0,0
						c-1.078-0.246-1.749-1.376-1.49-2.512L662.452,337.487z"/>
				</g>
				<g>
					<path style="fill:#383B42;" d="M656.411,331.031c1.515,0.345,2.448,1.919,2.084,3.515c-0.179,0.786-0.64,1.43-1.242,1.841
						l0.166-0.728c0.259-1.136-0.411-2.267-1.49-2.512l0,0c-1.078-0.246-2.172,0.483-2.431,1.618l-0.166,0.728
						c-0.365-0.631-0.501-1.411-0.322-2.197C653.373,331.7,654.896,330.686,656.411,331.031z"/>
					<path style="fill:#E1EEEF;" d="M653.331,335.493l0.166-0.728c0.259-1.136,1.353-1.864,2.431-1.618l0,0
						c1.078,0.246,1.749,1.376,1.49,2.512l-0.166,0.728l-2.016,8.845c-0.259,1.136-1.353,1.864-2.431,1.619l0,0
						c-1.078-0.246-1.749-1.376-1.49-2.512L653.331,335.493z"/>
				</g>
				<g>
					<path style="fill:#383B42;" d="M649.374,332.553c-0.179,0.786-0.64,1.43-1.242,1.841l0.166-0.728
						c0.259-1.136-0.411-2.267-1.49-2.512c-1.078-0.246-2.172,0.482-2.431,1.618l-0.166,0.728c-0.365-0.631-0.501-1.411-0.322-2.197
						c0.364-1.596,1.887-2.61,3.402-2.264C648.805,329.383,649.738,330.957,649.374,332.553z"/>
					<path style="fill:#E1EEEF;" d="M646.808,331.153c1.078,0.246,1.749,1.376,1.49,2.512l-0.166,0.728l-2.016,8.845
						c-0.259,1.136-1.353,1.864-2.431,1.618c-1.078-0.246-1.749-1.376-1.49-2.512l2.016-8.845l0.166-0.728
						C644.635,331.635,645.729,330.907,646.808,331.153z"/>
				</g>
			</g>
			<g>
				
					<line style="fill:none;stroke:#544943;stroke-width:2.3808;stroke-linejoin:round;stroke-miterlimit:10;" x1="642.066" y1="298.765" x2="783.213" y2="330.939"/>
				
					<line style="fill:none;stroke:#544943;stroke-width:2.3808;stroke-linejoin:round;stroke-miterlimit:10;" x1="645.603" y1="283.255" x2="786.75" y2="315.429"/>
				
					<line style="fill:none;stroke:#544943;stroke-width:2.3808;stroke-linejoin:round;stroke-miterlimit:10;" x1="649.139" y1="267.745" x2="790.286" y2="299.919"/>
				
					<line style="fill:none;stroke:#544943;stroke-width:2.3808;stroke-linejoin:round;stroke-miterlimit:10;" x1="652.675" y1="252.235" x2="793.822" y2="284.409"/>
				
					<line style="fill:none;stroke:#544943;stroke-width:2.3808;stroke-linejoin:round;stroke-miterlimit:10;" x1="656.212" y1="236.725" x2="797.359" y2="268.899"/>
				
					<line style="fill:none;stroke:#544943;stroke-width:2.3808;stroke-linejoin:round;stroke-miterlimit:10;" x1="659.748" y1="221.215" x2="800.895" y2="253.389"/>
				
					<line style="fill:none;stroke:#544943;stroke-width:2.3808;stroke-linejoin:round;stroke-miterlimit:10;" x1="663.284" y1="205.705" x2="804.432" y2="237.879"/>
				
					<line style="fill:none;stroke:#544943;stroke-width:2.3808;stroke-linejoin:round;stroke-miterlimit:10;" x1="666.821" y1="190.195" x2="807.968" y2="222.369"/>
				
					<line style="fill:none;stroke:#544943;stroke-width:2.3808;stroke-linejoin:round;stroke-miterlimit:10;" x1="670.357" y1="174.685" x2="811.504" y2="206.859"/>
				
					<line style="fill:none;stroke:#544943;stroke-width:2.3808;stroke-linejoin:round;stroke-miterlimit:10;" x1="673.893" y1="159.175" x2="815.041" y2="191.349"/>
				
					<line style="fill:none;stroke:#544943;stroke-width:2.3808;stroke-linejoin:round;stroke-miterlimit:10;" x1="677.43" y1="143.665" x2="818.577" y2="175.839"/>
			</g>
		</g>
	</g>
</g>
<g>
	<path style="fill:#AF8A80;" d="M607.5,792.042l-77.1-248.63c-2.54-8.22-10.68-13.01-18.17-10.7l-0.07,0.02l-138.78,42.71
		l-7.53,2.32l-2.21,0.68l-21.3,6.56c-7.49,2.3-11.5,10.83-8.95,19.05l36.08,116.38l0.67,2.15l3.23,10.41v0.01l1.49,4.79
		l35.62,114.89c0.81,2.59,2.17,4.84,3.89,6.64c3.73,3.9,9.16,5.64,14.29,4.06l111.45-34.3l58.44-17.99
		C606.041,808.792,610.051,800.263,607.5,792.042z"/>
	<g>
		<g>
			<g>
				<path style="fill:#249CDD;" d="M525.74,825.043l-111.37,34.28l-0.08,0.02c-7.49,2.3-15.63-2.49-18.17-10.7l-29.89-96.41
					l-2.98-9.58l-5.23-16.89l10.19-4.75c-3.16-1.94-7.34-2.01-11.82-0.51l-37.37-120.5c-2.55-8.21,1.46-16.74,8.95-19.05l31.04-9.55
					l4.63,7.04l2.4,3.66l2.18,3.31l1.25,1.91c0.01,0,0.01,0,0.01,0l3.06,4.67l11.98,18.22l13.36,20.33l19.2,29.21l30.55,46.46
					l12.45,18.94l12.22,18.59l31.55,48L525.74,825.043z"/>
				<path style="fill:#249CDD;" d="M497.858,528.665c7.492-2.306,15.63,2.484,18.178,10.7l77.096,248.637
					c2.547,8.216-1.461,16.745-8.953,19.051l-58.437,17.986L359.01,571.401L497.858,528.665z"/>
			</g>
		</g>
		<polygon style="fill:#FFFFFF;" points="569.299,771.601 413.607,819.521 342.26,589.424 497.952,541.504 		"/>
		<g>
			<path style="fill:#44423D;" d="M477.134,559.942l-103.69,31.92c-1.63,0.5-3.39-0.54-3.94-2.32l-2.63-8.49l-2.8-9.03l-3.43-11.05
				c-0.55-1.78,0.32-3.63,1.94-4.13l103.69-31.91c1.62-0.5,3.39,0.54,3.94,2.32l3.42,11.03l2.8,9.03l2.64,8.51
				C479.624,557.602,478.754,559.442,477.134,559.942z"/>
			<polygon style="fill:#827F7A;" points="476.434,547.312 366.874,581.052 364.074,572.022 473.634,538.282 			"/>
		</g>
	</g>
	<g>
		<path style="fill:#F7316A;" d="M395.227,677.76c-9.462,0-18.084-6.553-21.277-16.05l18.993-5.478l16.331,15.858
			c-2.38,2.287-5.276,3.965-8.431,4.875C399.014,677.492,397.124,677.76,395.227,677.76L395.227,677.76z"/>
		<g style="opacity:0.7;">
			<path style="fill:#ADA8BC;" d="M372.96,659.189c-2.801-11.05,2.43-22.32,12.233-26.402l6.199,21.086L372.96,659.189z"/>
		</g>
		<path style="fill:#FFC82C;" d="M394.936,654.372l3.541-22.755c8.012,1.763,14.673,8.133,17.125,16.471
			c2.287,7.778,0.586,16.051-4.432,21.834L394.936,654.372z"/>
		<path style="fill:#FFC82C;" d="M387.747,631.964c0.132-0.042,0.266-0.081,0.399-0.12c1.755-0.506,3.423-0.753,5.099-0.753
			c0.836,0,1.696,0.06,2.607,0.182l-2.911,18.723L387.747,631.964z"/>
	</g>
	<g>
		<path style="fill:#FF501A;" d="M416.303,741.018c-9.462,0-18.083-6.553-21.276-16.05l18.993-5.479l16.331,15.859
			c-2.379,2.287-5.276,3.964-8.431,4.874C420.089,740.75,418.2,741.018,416.303,741.018
			C416.303,741.018,416.303,741.018,416.303,741.018z"/>
		<path style="fill:#1E93C1;" d="M394.036,722.447c-2.8-11.05,2.431-22.32,12.233-26.403l6.199,21.086L394.036,722.447z"/>
		<path style="fill:#696A6E;" d="M416.012,717.63l3.541-22.755c8.012,1.764,14.673,8.133,17.124,16.472
			c2.287,7.778,0.585,16.051-4.432,21.834L416.012,717.63z"/>
		<path style="fill:#FFC82C;" d="M408.824,695.221c0.132-0.041,0.265-0.081,0.399-0.12c1.756-0.507,3.424-0.753,5.1-0.753
			c0.837,0,1.696,0.059,2.607,0.182l-2.911,18.723L408.824,695.221z"/>
	</g>
	
		<line style="fill:none;stroke:#5B5B5B;stroke-width:4.6397;stroke-miterlimit:10;" x1="371.464" y1="614.031" x2="486.339" y2="580.486"/>
	
		<line style="fill:none;stroke:#5B5B5B;stroke-width:3.9423;stroke-miterlimit:10;" x1="413.686" y1="623.392" x2="496.625" y2="599.172"/>
	
		<line style="fill:none;stroke:#5B5B5B;stroke-width:3.4944;stroke-miterlimit:10;" x1="431.451" y1="640.778" x2="502.796" y2="619.944"/>
	
		<line style="fill:none;stroke:#5B5B5B;stroke-width:3.4944;stroke-miterlimit:10;" x1="444.256" y1="683.877" x2="515.601" y2="663.044"/>
	
		<line style="fill:none;stroke:#5B5B5B;stroke-width:3.9423;stroke-miterlimit:10;" x1="425.915" y1="664.551" x2="508.853" y2="640.332"/>
	
		<line style="fill:none;stroke:#5B5B5B;stroke-width:3.9423;stroke-miterlimit:10;" x1="439.039" y1="708.725" x2="521.978" y2="684.506"/>
	
		<line style="fill:none;stroke:#5B5B5B;stroke-width:3.4944;stroke-miterlimit:10;" x1="456.804" y1="726.111" x2="528.149" y2="705.278"/>
	
		<line style="fill:none;stroke:#5B5B5B;stroke-width:2.8623;stroke-miterlimit:10;" x1="420.572" y1="806.904" x2="468.44" y2="792.926"/>
	
		<line style="fill:none;stroke:#5B5B5B;stroke-width:3.164;stroke-miterlimit:10;" x1="417.567" y1="796.788" x2="476.06" y2="779.707"/>
	
		<line style="fill:none;stroke:#5B5B5B;stroke-width:3.9423;stroke-miterlimit:10;" x1="451.268" y1="749.885" x2="534.206" y2="725.666"/>
</g>
<g>
	<g>
		
			<ellipse transform="matrix(0.2522 -0.9677 0.9677 0.2522 -67.4283 999.4843)" style="fill:#AF8A80;" cx="612.99" cy="543.371" rx="60.246" ry="60.246"/>
		<g>
			
				<ellipse transform="matrix(0.7071 -0.7071 0.7071 0.7071 -201.0621 581.8226)" style="fill:#FFFFFF;" cx="601.791" cy="533.615" rx="58.714" ry="58.714"/>
			<path style="opacity:0.55;fill:#8891AA;" d="M600.096,576.933c-0.931,0-1.867-0.029-2.807-0.09
				c-23.901-1.53-42.104-22.221-40.573-46.122c1.535-23.902,22.319-42.071,46.123-40.569c23.901,1.53,42.104,22.222,40.573,46.122
				C641.937,559.235,622.784,576.932,600.096,576.933z"/>
			<path style="opacity:0.55;fill:#8891AA;" d="M633.227,515.677l26.93,25.259c-2.568,26.051-21.447,45.203-48.99,51.327
				l-5.79-8.793l1.012-15.795L633.227,515.677z"/>
			
				<line style="fill:none;stroke:#EFEFEF;stroke-width:12.2534;stroke-linecap:round;stroke-miterlimit:10;" x1="602.398" y1="569.807" x2="601.756" y2="579.828"/>
		</g>
	</g>
	<g>
		
			<ellipse transform="matrix(0.9333 -0.359 0.359 0.9333 -151.5274 250.9961)" style="fill:#68350B;" cx="600.064" cy="533.498" rx="33.697" ry="33.697"/>
		
			<ellipse transform="matrix(0.0947 -0.9955 0.9955 0.0947 8.6428 1090.9846)" style="fill:#A54726;" cx="604.195" cy="540.74" rx="25.614" ry="25.614"/>
		<path style="fill:#FFFFFF;" d="M600.092,571.083c-0.806,0-1.615-0.025-2.429-0.078c-20.681-1.324-36.433-19.229-35.109-39.91
			c1.328-20.682,19.313-36.405,39.911-35.105c20.682,1.324,36.433,19.229,35.109,39.91
			C636.298,555.768,619.724,571.082,600.092,571.083z M600.044,503.689c-15.572,0-28.719,12.146-29.728,27.904
			c-1.049,16.402,11.44,30.602,27.841,31.653l0,0c16.354,1.039,30.602-11.439,31.654-27.842
			c1.049-16.402-11.44-30.601-27.841-31.652C601.325,503.71,600.682,503.689,600.044,503.689z"/>
	</g>
</g>
<g>
	<path style="fill-rule:evenodd;clip-rule:evenodd;fill:#AF8A80;" d="M427.585,429.191l-1.927,1.027
		c-14.8,7.811-33.325,2.133-41.136-12.667l-8.246-16.568c5.986,6.063,14.285,9.815,23.458,9.815c18.243,0,33.042-14.8,33.042-33.016
		c0-1.979-0.18-3.931-0.514-5.807l7.964,16.079C448.062,402.855,442.358,421.354,427.585,429.191z"/>
	
		<ellipse transform="matrix(0.7071 -0.7071 0.7071 0.7071 -150.0429 393.3089)" style="fill-rule:evenodd;clip-rule:evenodd;fill:#19ADF7;" cx="399.744" cy="377.772" rx="33.022" ry="33.022"/>
	
		<ellipse transform="matrix(0.7071 -0.7071 0.7071 0.7071 -150.0429 393.3089)" style="opacity:0.43;fill-rule:evenodd;clip-rule:evenodd;fill:#F3FBFF;" cx="399.744" cy="377.772" rx="23.898" ry="23.898"/>
	<circle style="fill-rule:evenodd;clip-rule:evenodd;fill:#2B66CC;" cx="402.528" cy="383.232" r="9.1"/>
	<circle style="fill-rule:evenodd;clip-rule:evenodd;fill:#FFFFFF;" cx="399.744" cy="377.772" r="9.1"/>
</g>
<g>
	<path style="fill-rule:evenodd;clip-rule:evenodd;fill:#959090;" d="M506.299,470.39c0.052,0.015,0.105,0.031,0.158,0.046
		l0.396,0.116c1.093,0.376,1.913,0.979,2.459,1.805c0.635,0.909,0.799,1.845,0.493,2.809c-0.323,1.016-1.013,1.729-2.069,2.141
		c-0.933,0.391-1.963,0.45-3.089,0.174l-0.396-0.116c-0.054-0.016-0.106-0.031-0.158-0.047c-0.867-0.365-1.554-0.928-2.064-1.688
		c-0.582-0.893-0.712-1.847-0.388-2.862c0.242-0.761,0.69-1.352,1.342-1.77c0.155-0.12,0.362-0.227,0.622-0.317
		C504.47,470.325,505.368,470.228,506.299,470.39z"/>
	<path style="fill-rule:evenodd;clip-rule:evenodd;fill:#F7B24D;" d="M511.559,378.185l44.303,13.017l-25.984,81.62l-44.303-13.017
		L511.559,378.185z"/>
	
		<path style="fill-rule:evenodd;clip-rule:evenodd;fill:none;stroke:#FFFFFF;stroke-width:4.3618;stroke-linecap:round;stroke-linejoin:round;stroke-miterlimit:3;" d="
		M535.901,380.675c0.228,0.176,0.37,0.273,0.427,0.291c-0.265-0.078-0.502-0.148-0.714-0.21
		C535.646,380.655,535.742,380.628,535.901,380.675z M544.685,382.755l2.299,0.675"/>
	<path style="fill-rule:evenodd;clip-rule:evenodd;fill:#46495B;" d="M532.27,485.181c-1.068,2.629-2.535,3.696-4.399,3.204
		l-49.456-14.531c-1.78-0.578-2.507-2.291-2.177-5.136l30.154-94.716c0.032-0.101,0.065-0.203,0.097-0.304l0.412-1.294
		c0.813-2.371,2.878-4.567,6.797-3.415l46.583,13.687c3.791,1.114,3.323,3.724,2.604,6.344l-0.509,1.599
		c-0.016,0.051-0.057,0.178-0.121,0.38L532.27,485.181z M535.901,380.675c0.228,0.176,0.37,0.273,0.427,0.291
		c-0.265-0.078-0.502-0.148-0.714-0.21C535.646,380.655,535.742,380.628,535.901,380.675c-0.159-0.047-0.255-0.019-0.287,0.081
		c0.211,0.062,0.449,0.132,0.714,0.21C536.271,380.948,536.128,380.851,535.901,380.675z M544.685,382.755l2.299,0.675
		L544.685,382.755z M511.559,378.185l-25.984,81.62l44.303,13.017l25.984-81.62L511.559,378.185z M542.466,382.103l-15.93-4.681
		L542.466,382.103z M506.299,470.39c-0.931-0.163-1.829-0.066-2.694,0.291c-0.26,0.09-0.467,0.197-0.622,0.317
		c-0.652,0.419-1.1,1.009-1.342,1.77c-0.323,1.015-0.194,1.97,0.388,2.862c0.509,0.759,1.197,1.322,2.064,1.688
		c0.052,0.015,0.105,0.031,0.158,0.047l0.396,0.116c1.125,0.276,2.156,0.217,3.089-0.174c1.056-0.412,1.745-1.125,2.069-2.141
		c0.307-0.964,0.142-1.9-0.493-2.809c-0.546-0.826-1.365-1.429-2.459-1.805l-0.396-0.116
		C506.404,470.421,506.351,470.406,506.299,470.39z"/>
	<path style="opacity:0.8;fill-rule:evenodd;clip-rule:evenodd;fill:#3E6376;" d="M557.784,404.441l-4.145,13.02l-74.988,43.077
		l3.757-11.802L557.784,404.441z M484.372,442.57l12.386-38.907l41.813-27.347l21.175,6.203c2.477,0.517,3.87,1.848,3.63,4.41
		l-3.541,11.667L484.372,442.57z"/>
	
		<line style="fill-rule:evenodd;clip-rule:evenodd;fill:none;stroke:#303030;stroke-width:4.3618;stroke-linecap:round;stroke-linejoin:round;stroke-miterlimit:3;" x1="542.466" y1="382.103" x2="526.536" y2="377.423"/>
</g>
<g>
	<path style="fill:none;stroke:#DB926E;stroke-width:18;stroke-linecap:round;stroke-linejoin:round;stroke-miterlimit:10;" d="
		M536.731,741.242c15.667-2.97,24.856-2.6,36.436,3.397c10.32,5.345,14.85,14.645,12.21,32.459l-8.93,4.924"/>
	<path style="fill:#FFB287;" d="M584.9,762.213l9.194-12.422c6.344-1.609,6.57-7.035,11.468,5.266l24.241,103.389
		c1.609,6.344-2.265,12.852-8.61,14.461l-9.24,2.344c-6.344,1.609-12.852-2.265-14.461-8.61l-23.404-92.278
		C572.479,768.019,579.438,765.338,584.9,762.213z"/>
	<path style="fill:#FFB287;" d="M586.003,782.748c12.328,9.981,11.602,26.501,3.027,29.586c-12.711,4.573-25.891-11.406-35.169-25.4
		c-13.812-20.832-2.171-28.813,5.25-23.523C565.896,768.248,577.944,776.223,586.003,782.748z"/>
	<path style="fill:#FFB287;" d="M553.69,759.273c7.233,8.959,38.601,0.459,22.425-19.208l18.196,20.428
		c0,0-10.035,6.742-10.398,6.834c-0.363,0.092-11.181,14.444-16.602,6.739C566.879,773.452,553.69,759.273,553.69,759.273z"/>
	<path style="fill:none;stroke:#FFB287;stroke-width:18;stroke-linecap:round;stroke-miterlimit:10;" d="M530.482,734.139
		l20.994-17.503c20.585,11.475,33.744,16.596,44.566,40.118"/>
	<g>
		
			<path style="fill:#3D50D8;stroke:#3A3634;stroke-width:2.4636;stroke-linecap:round;stroke-linejoin:round;stroke-miterlimit:10;" d="
			M522.664,744.941l-10.372,3.493L522.664,744.941z"/>
		<g>
			<path style="fill:#3D50D8;" d="M602.372,713.641l-84.954,29.933c-0.914,0.322-1.323,1.437-0.929,2.496l0.703,1.888
				c0.394,1.059,1.459,1.708,2.395,1.445l86.993-24.452c3.633-1.021,1.851-2.661,1.043-4.832l-1.44-3.871
				C605.375,714.077,605.92,712.391,602.372,713.641z"/>
			<path style="fill:#8A9AED;" d="M609.073,718.316c0.877,3.187,0.144,6.108-1.637,6.524c-1.781,0.416-3.935-1.829-4.812-5.016
				c-0.877-3.187-0.144-6.108,1.637-6.525C606.042,712.883,608.197,715.129,609.073,718.316z"/>
			<path style="fill:#3D50D8;" d="M609.355,718.346c0.721,2.621,0.136,5.019-1.306,5.357c-1.442,0.337-3.196-1.514-3.917-4.135
				c-0.721-2.621-0.137-5.019,1.306-5.357C606.88,713.874,608.634,715.725,609.355,718.346z"/>
			<polygon style="fill:#3D50D8;" points="605.438,714.211 610.524,712.358 613.432,721.758 608.049,723.703 			"/>
			<path style="fill:#8A9AED;" d="M615.411,716.244c0.721,2.621-0.165,5.09-1.979,5.514c-1.814,0.424-3.869-1.357-4.59-3.978
				c-0.721-2.621,0.165-5.09,1.979-5.514C612.635,711.842,614.69,713.623,615.411,716.244z"/>
		</g>
	</g>
	<g>
		<path style="fill:#FFB287;" d="M582.794,809.415c-2.592,0-5.173-1.054-7.049-3.128l-14.85-16.42l-35.584-31.052
			c-4.045-3.341-6.499-8.167-4.933-10.135c3.266-4.106,12.133-4.093,15.353-1.474l37.436,25.677
			c0.354,0.293,1.048,3.385,1.357,3.727l15.313,16.933c3.519,3.892,3.218,9.899-0.674,13.418
			C587.345,808.605,585.065,809.415,582.794,809.415z"/>
	</g>
</g>
<path style="fill:#FFB287;" d="M335.995,708.229l-10.813-10.733c-6.245-1.961-7.165-7.447-12.742,4.561l-28.982,101.929
	c-1.961,6.245,1.543,12.958,7.788,14.919l9.095,2.856c6.245,1.961,12.958-1.543,14.919-7.788l28.524-90.826
	C345.744,716.904,341.274,711.655,335.995,708.229z"/>
<path style="fill:#FFB287;" d="M346.685,711.024c-6.497,3.026-15.855-6.747-11.162-11.955l-7.862,6.548
	c0,0,0.014,16.644,0.371,16.756c0.358,0.112,17.868,4.432,18.093,3.717C346.349,725.374,346.685,711.024,346.685,711.024z"/>
<path style="fill:none;stroke:#3D50D8;stroke-miterlimit:10;" d="M467.91,765.816c0.579-8.226,2.538-20.774,8.836-18.391
	c5.314,3.869,3.898,14.456,2.333,21.942c-0.272,1.299-0.394,2.679,0.108,3.937s1.985,2.37,3.586,2.174
	c0.815-0.1,1.551-0.461,2.167-0.925c14.417-10.847,17.861-38.843,14.213-34.489c0,0-4.239,4.052-3.729,6.697
	c2.157,11.191-2.056,22.677-1.337,34.021c0.14,2.215,0.513,4.723,2.703,6.032c5.136,5.184,4.153-38.857,4.79-39.689
	c0.428-0.559-0.316,13.43,3.253,13.097c3.811,0.263,2.198-13.628,2.878-11.921c0.68,1.707,1.81,2.041,1.331,2.423
	c-0.48,0.383,0.634-0.413,2.45-1.596"/>
<polygon style="fill:#DB926E;" points="324.709,785.504 291.286,775.34 295.84,760.725 328.938,771.139 "/>
<g>
	<polygon style="fill:#C7D1E0;" points="247.133,882.326 297.203,898.353 307.769,900 346.005,780.56 335.954,777.336 
		285.884,761.309 	"/>
	
		<rect x="228.009" y="803.545" transform="matrix(0.3049 -0.9524 0.9524 0.3049 -587.665 854.5085)" style="fill:#FFFFFF;" width="127.07" height="52.572"/>
	<polygon style="fill:#49555B;" points="239.309,900 291.631,900 310.221,900 341.326,802.855 324.466,797.458 277.01,782.263 	"/>
	<polygon style="fill:#272A30;" points="239.309,900 291.631,900 324.466,797.458 277.01,782.263 	"/>
</g>
<polygon style="fill:#DB926E;" points="622.762,823.071 589.042,832.201 585.143,817.398 618.719,808.652 "/>
<g>
	<polygon style="fill:#C7D1E0;" points="648.242,876.697 597.282,889.617 588.176,892.217 572.561,824.172 582.791,821.572 
		633.751,808.652 	"/>
	<polygon style="fill:#FFFFFF;" points="649.376,876.697 598.416,889.617 582.791,821.572 633.751,808.652 	"/>
	<polygon style="fill:#49555B;" points="659.047,900 607.64,900.002 589.375,900 575.861,846.712 593.021,842.362 641.321,830.112 	
		"/>
	<polygon style="fill:#272A30;" points="659.047,900 607.64,900.002 593.021,842.362 641.321,830.112 	"/>
</g>
<path style="fill-rule:evenodd;clip-rule:evenodd;fill:#FFB287;" d="M650.038,108.264l-21.726-17.808l-36.084,16.178l-8.918,10.66
	l-13.692,12.862c-1.49-1.462-6.436-1.892-10.335-0.892l-39.801,13.162c-5.119,3.983-12.221,7.084-21.321,9.295
	c0.63,4.431,2.35,7.259,5.177,8.488c1.761,0.777,3.869,0.928,6.341,0.455c4.138-0.704,9.351-2.921,15.64-6.674l3.182-0.822
	l9.451-1.146l-36.045,33.517l-13.824,11.472c-2.142,2.502-2.107,5.155,0.094,7.979c2.622,3.272,5.907,3.518,9.849,0.723
	l12.672-11.587l20.744-16.88c-0.918,1.447-1.359,3.226-1.332,5.36c-0.065,1.772,0.478,3.477,1.611,5.129
	c2.279,3.17,5.146,3.997,8.61,2.452c0.302-0.09,0.644-0.206,1.011-0.349c-0.089,0.284-0.144,0.609-0.179,0.958
	c-0.253,1.933,0.211,3.743,1.397,5.46c1.957,2.86,4.457,3.605,7.481,2.257c0.426-0.138,0.858-0.327,1.303-0.575
	c-0.169,0.569-0.206,1.158-0.086,1.755c0.077,0.954,0.398,1.879,0.955,2.76c0.643,0.77,1.203,1.329,1.694,1.671
	c0.79,0.432,1.661,0.579,2.62,0.442c0.355-0.024,0.749-0.135,1.181-0.325c0.426-0.137,0.918-0.321,1.482-0.565l28.587-28.057
	c5.127-5.524,5.052-13.277,4.484-19.498c5.668-5.338,10.647-10.885,16.488-16.079c1.796-1.599,5.392-1.912,7.224-3.492
	C627.035,126.869,638.388,117.439,650.038,108.264z"/>
<polygon style="fill:#DB926E;" points="586.902,113.446 611.329,138.421 599.878,148.596 576.291,124.012 "/>
<g>
	<polygon style="fill:#C7D1E0;" points="702.41,66.123 666.203,28.007 658.929,20.345 566.8,107.857 574.065,115.514 
		610.273,153.63 	"/>
	<polygon style="fill:#FFFFFF;" points="702.41,66.123 666.203,28.007 574.065,115.514 611.99,155.437 	"/>
	<polygon style="fill:#49555B;" points="720.263,52.012 704.067,0 678.922,0 581.617,90.553 593.81,103.388 628.125,139.519 	"/>
	<polygon style="fill:#272A30;" points="776.913,0 704.067,0 593.81,103.388 628.125,139.519 	"/>
</g>
<path style="fill:#FFB287;" d="M316.407,197.198c-6.966-1.684-14.212,9.743-8.584,13.923l-9-4.868c0,0-3.27-16.319-2.942-16.5
	c0.329-0.181,16.642-7.871,17.004-7.214S316.407,197.198,316.407,197.198z"/>
<g>
	
		<rect x="686.846" y="595.661" transform="matrix(0.9963 0.0864 -0.0864 0.9963 64.8427 -64.2267)" style="fill:#FFFFFF;" width="174.423" height="241.95"/>
	<g>
		<path style="fill:#F431D8;" d="M724.183,666.592c-0.449,0-0.902-0.02-1.358-0.061c-7.999-0.715-14.017-7.585-13.704-15.474
			l13.709,1.225l6.647,13.341C727.787,666.267,726.01,666.592,724.183,666.592L724.183,666.592z"/>
		<g style="opacity:0.7;">
			<path style="fill:#ADA8BC;" d="M709.108,649.213c0.932-7.303,7.025-12.752,14.475-12.87l-1.184,14.058L709.108,649.213z"/>
		</g>
		<path style="fill:#E5651F;" d="M724.588,651.588l7.909-12.798c4.774,2.956,7.531,8.359,7.062,13.94
			c-0.438,5.205-3.594,9.762-8.288,12.036L724.588,651.588z"/>
		<path style="fill:#FFC82C;" d="M725.447,636.456c0.096,0.007,0.192,0.014,0.289,0.023c1.884,0.168,3.452,0.615,5.123,1.473
			l-6.495,10.513L725.447,636.456z"/>
	</g>
	<g>
		<path style="fill:#FF501A;" d="M722.023,711.907c-0.449,0-0.903-0.02-1.359-0.061c-7.999-0.715-14.017-7.58-13.705-15.463
			l13.709,1.225l6.648,13.331C725.626,711.582,723.848,711.907,722.023,711.907L722.023,711.907z"/>
		<path style="fill:#33E5E5;" d="M706.946,694.539c0.931-7.298,7.023-12.742,14.474-12.859l-1.183,14.047L706.946,694.539z"/>
		<path style="fill:#E2398E;" d="M722.426,696.913l7.908-12.788c4.774,2.955,7.532,8.353,7.063,13.93
			c-0.438,5.201-3.593,9.755-8.288,12.026L722.426,696.913z"/>
		<path style="fill:#FFC82C;" d="M723.283,681.793c0.096,0.007,0.193,0.014,0.289,0.023c1.884,0.168,3.452,0.615,5.123,1.472
			l-6.494,10.505L723.283,681.793z"/>
	</g>
	<path style="fill:#FFFFFF;stroke:#5B5B5B;stroke-width:4.6397;stroke-miterlimit:10;" d="M723.629,614.739l119.23,10.281
		L723.629,614.739z"/>
	<path style="fill:#FFFFFF;stroke:#5B5B5B;stroke-width:3.9423;stroke-miterlimit:10;" d="M759.606,638.74l86.083,7.423
		L759.606,638.74z"/>
	<path style="fill:#FFFFFF;stroke:#5B5B5B;stroke-width:3.4944;stroke-miterlimit:10;" d="M769.879,661.375l74.05,6.385
		L769.879,661.375z"/>
	<path style="fill:#FFFFFF;stroke:#5B5B5B;stroke-width:3.4944;stroke-miterlimit:10;" d="M769.489,671.242l74.05,6.385
		L769.489,671.242z"/>
	<path style="fill:#FFFFFF;stroke:#5B5B5B;stroke-width:3.4944;stroke-miterlimit:10;" d="M770.815,650.584l74.05,6.385
		L770.815,650.584z"/>
	<path style="fill:#FFFFFF;stroke:#5B5B5B;stroke-width:3.4944;stroke-miterlimit:10;" d="M766.226,706.188l74.05,6.385
		L766.226,706.188z"/>
	<path style="fill:#FFFFFF;stroke:#5B5B5B;stroke-width:3.4944;stroke-miterlimit:10;" d="M767.054,693.932l74.05,6.385
		L767.054,693.932z"/>
	<path style="fill:#FFFFFF;stroke:#5B5B5B;stroke-width:3.4944;stroke-miterlimit:10;" d="M768.403,716.95l74.05,6.385
		L768.403,716.95z"/>
	<path style="fill:#FFFFFF;stroke:#5B5B5B;stroke-width:3.9423;stroke-miterlimit:10;" d="M756.117,681.535l86.083,7.423
		L756.117,681.535z"/>
	<path style="fill:#FFFFFF;stroke:#5B5B5B;stroke-width:3.9423;stroke-miterlimit:10;" d="M752.374,727.466l86.083,7.423
		L752.374,727.466z"/>
	<path style="fill:#FFFFFF;stroke:#5B5B5B;stroke-width:3.4944;stroke-miterlimit:10;" d="M762.646,750.101l74.05,6.385
		L762.646,750.101z"/>
	<path style="fill:#FFFFFF;stroke:#5B5B5B;stroke-width:3.4944;stroke-miterlimit:10;" d="M761.727,760.695l74.05,6.385
		L761.727,760.695z"/>
	<path style="fill:#FFFFFF;stroke:#5B5B5B;stroke-width:3.4944;stroke-miterlimit:10;" d="M759.872,782.08l74.05,6.385
		L759.872,782.08z"/>
	<path style="fill:#FFFFFF;stroke:#5B5B5B;stroke-width:3.4944;stroke-miterlimit:10;" d="M758.935,792.871l74.05,6.385
		L758.935,792.871z"/>
	<path style="fill:#FFFFFF;stroke:#5B5B5B;stroke-width:3.4944;stroke-miterlimit:10;" d="M763.12,739.27l74.05,6.385L763.12,739.27
		z"/>
	<path style="fill:#FFFFFF;stroke:#5B5B5B;stroke-width:2.8623;stroke-miterlimit:10;" d="M699.643,812.315l49.682,4.284
		L699.643,812.315z"/>
	<path style="fill:#FFFFFF;stroke:#5B5B5B;stroke-width:3.164;stroke-miterlimit:10;" d="M700.5,801.797l60.711,5.235L700.5,801.797
		z"/>
	<path style="fill:#FFFFFF;stroke:#5B5B5B;stroke-width:3.9423;stroke-miterlimit:10;" d="M748.885,770.261l86.083,7.423
		L748.885,770.261z"/>
	<g>
		
			<ellipse transform="matrix(0.6015 -0.7989 0.7989 0.6015 -310.5371 875.3565)" style="fill:#EDCC07;stroke:#FFFFFF;stroke-width:3.1818;stroke-miterlimit:10;" cx="722.12" cy="748.936" rx="26.25" ry="26.25"/>
		<path style="fill:#32E05F;stroke:#FFFFFF;stroke-width:3.1818;stroke-miterlimit:10;" d="M722.12,748.936l6.689,25.383
			c-2.92,0.769-5.95,1.029-8.958,0.768c-14.346-1.245-25.128-14.074-23.883-28.421c1.245-14.346,14.074-25.128,28.421-23.883
			c14.346,1.245,25.127,14.074,23.883,28.421c-0.633,7.295-4.291,14.003-10.081,18.486L722.12,748.936z"/>
		<path style="fill:#30B4E2;stroke:#FFFFFF;stroke-width:3.1818;stroke-miterlimit:10;" d="M722.12,748.936l6.689,25.383
			c-2.92,0.769-5.95,1.029-8.958,0.768c-14.346-1.245-25.128-14.074-23.883-28.421c1.245-14.346,14.074-25.128,28.421-23.883
			c4.431,0.384,8.692,1.889,12.382,4.371L722.12,748.936z"/>
		<path style="fill:#E54C2E;stroke:#FFFFFF;stroke-width:3.1818;stroke-miterlimit:10;" d="M722.12,748.936l6.689,25.383
			c-2.92,0.769-5.95,1.029-8.958,0.768c-14.346-1.245-25.128-14.074-23.883-28.421c0.204-2.35,0.724-4.662,1.545-6.873
			L722.12,748.936z"/>
		<path style="fill:#A325E5;stroke:#FFFFFF;stroke-width:3.1818;stroke-miterlimit:10;" d="M722.12,748.936l6.689,25.383
			c-2.92,0.769-5.95,1.029-8.958,0.768c-4.562-0.396-8.941-1.978-12.702-4.589L722.12,748.936z"/>
	</g>
</g>
<g>
	<polygon style="fill:#C7D1E0;" points="676.724,829.542 837.054,835.472 845.704,601.422 764.404,594.372 	"/>
	
		<rect x="658.16" y="589.377" transform="matrix(-1 -1.224647e-16 1.224647e-16 -1 1490.7423 1420.7045)" style="fill:#FFFFFF;" width="174.423" height="241.95"/>
	<g>
		<path style="fill:#F431D8;" d="M800.703,662.371c-2.259,0-4.494-0.51-6.508-1.48l7.775-12.716l13.764-0.036
			c-0.371,7.886-6.961,14.211-14.99,14.231L800.703,662.371z"/>
		<g style="opacity:0.7;">
			<path style="fill:#ADA8BC;" d="M802.598,632.23c7.325,0.756,13.003,6.758,13.308,14.073l-13.344,0.034L802.598,632.23z"/>
		</g>
		<path style="fill:#E5651F;" d="M792.482,659.881c-4.48-2.67-7.23-7.484-7.217-12.707c0.015-5.6,3.229-10.744,8.24-13.277
			l6.773,13.434L792.482,659.881z"/>
		<path style="fill:#FFC82C;" d="M795.21,633.204c1.739-0.71,3.34-1.02,5.231-1.024c0.001,0,0.198,0.001,0.29,0.002l0.04,12.057
			L795.21,633.204z"/>
	</g>
	<g>
		<path style="fill:#FF501A;" d="M798.94,707.703c-2.258,0-4.494-0.51-6.509-1.478l7.775-12.707l13.764-0.036
			c-0.371,7.88-6.96,14.2-14.99,14.22L798.94,707.703z"/>
		<path style="fill:#33E5E5;" d="M800.834,677.583c7.325,0.756,13.003,6.753,13.308,14.062l-13.344,0.034L800.834,677.583z"/>
		<path style="fill:#E2398E;" d="M790.719,705.214c-4.481-2.668-7.231-7.478-7.217-12.698c0.014-5.596,3.227-10.737,8.241-13.267
			l6.773,13.424L790.719,705.214z"/>
		<path style="fill:#FFC82C;" d="M793.446,678.557c1.739-0.709,3.339-1.019,5.231-1.023c0,0,0.196,0.001,0.29,0.003l0.041,12.048
			L793.446,678.557z"/>
	</g>
	<path style="fill:none;stroke:#5B5B5B;stroke-width:4.6397;stroke-miterlimit:10;" d="M804.419,610.703l-125.007-0.063
		L804.419,610.703z"/>
	<path style="fill:none;stroke:#5B5B5B;stroke-width:3.9423;stroke-miterlimit:10;" d="M766.502,631.504l-87.091-0.046
		L766.502,631.504z"/>
	<path style="fill:none;stroke:#5B5B5B;stroke-width:3.4944;stroke-miterlimit:10;" d="M754.311,653.166l-74.9-0.039
		L754.311,653.166z"/>
	<path style="fill:none;stroke:#5B5B5B;stroke-width:3.4944;stroke-miterlimit:10;" d="M753.847,663.03l-74.436-0.039
		L753.847,663.03z"/>
	<path style="fill:none;stroke:#5B5B5B;stroke-width:3.4944;stroke-miterlimit:10;" d="M754.311,642.335l-74.9-0.039
		L754.311,642.335z"/>
	<path style="fill:none;stroke:#5B5B5B;stroke-width:3.4944;stroke-miterlimit:10;" d="M754.077,698.127l-74.665-0.039
		L754.077,698.127z"/>
	<path style="fill:none;stroke:#5B5B5B;stroke-width:3.4944;stroke-miterlimit:10;" d="M754.311,685.845l-74.9-0.039
		L754.311,685.845z"/>
	<path style="fill:none;stroke:#5B5B5B;stroke-width:3.4944;stroke-miterlimit:10;" d="M750.978,708.661l-74.325-0.039
		L750.978,708.661z"/>
	<path style="fill:none;stroke:#5B5B5B;stroke-width:3.9423;stroke-miterlimit:10;" d="M766.278,674.441l-86.867-0.046
		L766.278,674.441z"/>
	<path style="fill:none;stroke:#5B5B5B;stroke-width:3.9423;stroke-miterlimit:10;" d="M766.038,720.523l-86.627-0.046
		L766.038,720.523z"/>
	<path style="fill:none;stroke:#5B5B5B;stroke-width:3.4944;stroke-miterlimit:10;" d="M753.847,742.185l-74.436-0.039
		L753.847,742.185z"/>
	<path style="fill:none;stroke:#5B5B5B;stroke-width:3.4944;stroke-miterlimit:10;" d="M753.847,752.819l-74.436-0.039
		L753.847,752.819z"/>
	<path style="fill:none;stroke:#5B5B5B;stroke-width:3.4944;stroke-miterlimit:10;" d="M753.847,774.284l-74.436-0.039
		L753.847,774.284z"/>
	<path style="fill:none;stroke:#5B5B5B;stroke-width:3.4944;stroke-miterlimit:10;" d="M753.847,785.116l-74.436-0.039
		L753.847,785.116z"/>
	<path style="fill:none;stroke:#5B5B5B;stroke-width:3.4944;stroke-miterlimit:10;" d="M754.311,731.354l-74.9-0.039
		L754.311,731.354z"/>
	<path style="fill:#FFFFFF;stroke:#5B5B5B;stroke-width:2.8623;stroke-miterlimit:10;" d="M811.237,809.613l-49.867-0.026
		L811.237,809.613z"/>
	<path style="fill:#FFFFFF;stroke:#5B5B5B;stroke-width:3.164;stroke-miterlimit:10;" d="M811.292,799.06l-60.936-0.032
		L811.292,799.06z"/>
	<path style="fill:none;stroke:#5B5B5B;stroke-width:3.9423;stroke-miterlimit:10;" d="M765.814,763.46l-86.403-0.046
		L765.814,763.46z"/>
	<g>
		<circle style="fill:#EDCC07;stroke:#FFFFFF;stroke-width:3.1818;stroke-miterlimit:10;" cx="794.322" cy="744.528" r="26.25"/>
		<path style="fill:#32E05F;stroke:#FFFFFF;stroke-width:3.1818;stroke-miterlimit:10;" d="M794.322,744.528l-8.858,24.71
			c2.842,1.019,5.839,1.54,8.858,1.54c14.4,0,26.25-11.85,26.25-26.25c0-14.4-11.85-26.25-26.25-26.25
			c-14.4,0-26.25,11.85-26.25,26.25c0,7.323,3.064,14.322,8.445,19.289L794.322,744.528z"/>
		<path style="fill:#30B4E2;stroke:#FFFFFF;stroke-width:3.1818;stroke-miterlimit:10;" d="M794.322,744.528l-8.858,24.71
			c2.842,1.019,5.839,1.54,8.858,1.54c14.4,0,26.25-11.85,26.25-26.25c0-14.4-11.85-26.25-26.25-26.25
			c-4.447,0-8.822,1.13-12.713,3.284L794.322,744.528z"/>
		<path style="fill:#E54C2E;stroke:#FFFFFF;stroke-width:3.1818;stroke-miterlimit:10;" d="M794.322,744.528l-8.858,24.71
			c2.842,1.019,5.839,1.54,8.858,1.54c14.4,0,26.25-11.85,26.25-26.25c0-2.359-0.318-4.707-0.945-6.981L794.322,744.528z"/>
		<path style="fill:#A325E5;stroke:#FFFFFF;stroke-width:3.1818;stroke-miterlimit:10;" d="M794.322,744.528l-8.858,24.71
			c2.842,1.019,5.839,1.54,8.858,1.54c4.579,0,9.079-1.198,13.051-3.474L794.322,744.528z"/>
	</g>
</g>
<g>
	<g>
		<path style="fill:#AF8A80;" d="M246.537,656.474l-6.192,1.63l-18.63,4.897l0,0L68.526,747.728
			c-0.59-0.097-1.217-0.015-1.784,0.299l-8.871,4.906c-0.843,0.466-1.343,1.31-1.411,2.191l-5.699,3.152
			c-3.189,1.764-4.394,5.747-2.677,8.852l0.607,1.097c1.717,3.104,5.732,4.201,8.921,2.437l5.699-3.152
			c0.783,0.412,1.763,0.436,2.606-0.03l8.871-4.906c0.567-0.314,0.97-0.801,1.201-1.353l153.189-84.728l0,0l14.59-13.677
			c0.044,0.004,0.085,0.01,0.13,0.013l4.051-3.804c0.579-0.541,0.591-1.277,0.269-1.814
			C247.933,656.652,247.303,656.271,246.537,656.474z"/>
		<g>
			<path style="fill:#ED6294;" d="M62.556,759.84l-12.307,6.807c-2.85,1.576-6.471,0.534-8.047-2.315l-1.119-2.023
				c-1.576-2.85-0.534-6.471,2.316-8.047l12.307-6.807c2.85-1.576,6.471-0.534,8.047,2.316l1.119,2.023
				C66.448,754.643,65.406,758.264,62.556,759.84z"/>
			
				<rect x="49.037" y="701.479" transform="matrix(0.8751 -0.484 0.484 0.8751 -325.8127 156.1254)" style="fill:#20B6CE;" width="180.965" height="15.409"/>
			<path style="fill:#FBDCAC;" d="M239.791,652.118l-6.192,1.63l-18.63,4.897l7.462,13.492l14.671-13.753l4.051-3.804
				C242.279,653.528,241.281,651.723,239.791,652.118z"/>
			<path style="fill:#485155;" d="M239.84,652.206l-6.192,1.63l3.504,4.636l4.051-3.804
				C242.328,653.616,241.33,651.812,239.84,652.206z"/>
			<path style="fill:#B0BFD6;" d="M68.041,758.217l-8.87,4.906c-1.313,0.726-2.966,0.275-3.673-1.003
				c-2.219-4.011-3.393-6.134-5.475-9.899c-0.707-1.278-0.211-2.918,1.102-3.644l8.871-4.906c1.313-0.726,2.362-1.366,2.819-0.54
				c2.212,4,5.284,9.553,7.176,12.975C70.392,756.221,69.354,757.491,68.041,758.217z"/>
			
				<line style="fill:none;stroke:#6AD1DB;stroke-width:2.9303;stroke-linecap:round;stroke-miterlimit:10;" x1="66.695" y1="745.204" x2="212.347" y2="664.645"/>
			
				<line style="fill:none;stroke:#F4C6D6;stroke-width:2.9303;stroke-linecap:round;stroke-miterlimit:10;" x1="45.046" y1="757.178" x2="45.893" y2="756.71"/>
		</g>
		
			<rect x="59.767" y="743.049" transform="matrix(0.8751 -0.484 0.484 0.8751 -355.3239 124.9434)" style="fill:#1890B5;" width="9.187" height="15.409"/>
	</g>
	<path style="fill:#94A6BF;" d="M68.042,758.212l-8.87,4.906c-1.321,0.731-2.961,0.282-3.671-1.001l-5.475-9.899
		c-0.704-1.273-0.218-2.911,1.103-3.642l8.87-4.906c1.312-0.725,2.361-1.367,2.821-0.537l7.171,12.966
		C70.392,756.223,69.354,757.487,68.042,758.212z"/>
	<path style="fill:#C4D9F7;" d="M64.565,748.516c-0.019,0.367-0.938,1.357-2.033,1.962l-6.983,3.862
		c-1.321,0.731-2.961,0.282-3.671-1.001l-0.256-0.463c-0.704-1.273-0.218-2.911,1.103-3.642l6.983-3.862
		c1.312-0.725,2.361-1.367,2.821-0.537l1.952,3.529C64.54,748.382,64.571,748.438,64.565,748.516z"/>
</g>
<g>
	<path style="fill:#AF8A80;" d="M167.986,267.937l-0.004,0.188c14.348-0.549,28.134-2.074,41.101-4.85
		c3.938-0.253,6.411-2.703,6.494-6.188l0.004-0.188l0.149-6.277l0.005-0.186l0.259-10.918l0.004-0.188
		c0.083-3.485-1.936-5.612-6.193-6.489c-10.725-3.632-24.673-5.769-40.825-6.788c-29.685-1.878-66.8,0.019-104.952,3.33
		c-3.49-0.083-6.412,2.704-6.494,6.188l-0.264,11.106l-0.153,6.463c-0.083,3.485,2.703,6.406,6.193,6.489
		C99.029,265.313,134.988,269.203,167.986,267.937z"/>
	<path d="M153.372,244.605l0.049-2.068c0.081-3.412,2.549-5.673,6.352-6.057c7.546-1.324,15.335-0.893,23.266,0.552
		c3.412,0.081,6.138,2.939,6.057,6.351l-0.049,2.068c-0.081,3.412-2.939,6.138-6.352,6.057c-9.856,1.146-17.611,0.962-23.266-0.552
		C156.034,250.531,153.291,248.018,153.372,244.605z"/>
	<path style="fill:#CAEF43;" d="M64.323,249.932c-3.49-0.083-6.276-3.005-6.193-6.489l0.264-11.106
		c0.083-3.485,3.005-6.271,6.494-6.188c38.152-3.311,75.267-5.209,104.952-3.33c16.152,1.019,30.1,3.156,40.825,6.788
		c4.257,0.877,6.276,3.005,6.193,6.489l-0.264,11.106c-0.083,3.485-2.557,5.935-6.494,6.188c-12.967,2.776-26.754,4.301-41.101,4.85
		C136.001,259.505,100.042,255.616,64.323,249.932z"/>
</g>
<g>
	<path style="fill:#7CAD27;" d="M159.462,250.876c-3.399-0.427-6.138-2.939-6.057-6.351l0.049-2.068
		c0.01-0.419,0.056-0.816,0.137-1.197c0.567-2.739,2.875-4.52,6.214-4.86c7.543-1.321,15.333-0.893,23.266,0.552
		c3.014,0.072,5.496,2.308,5.971,5.186c0.069,0.379,0.096,0.768,0.086,1.166l-0.049,2.068c-0.081,3.412-2.939,6.138-6.351,6.057
		C172.871,252.575,165.116,252.391,159.462,250.876z"/>
	<path style="fill:#3F3F49;stroke:#3F3F49;stroke-width:2;stroke-linejoin:round;stroke-miterlimit:10;" d="M168.994,258.015
		l0.845-35.607c16.152,1.019,30.1,3.156,40.825,6.788c4.257,0.877,6.276,3.005,6.193,6.489l-0.268,11.292
		c-0.083,3.485-2.557,5.935-6.494,6.188C197.128,255.941,183.342,257.466,168.994,258.015z"/>
	<path style="fill:#3F3F49;" d="M159.566,242.743c-3.012-0.377-5.504-2.391-5.975-5.222c0.567-2.739,2.875-4.52,6.214-4.86
		c7.543-1.321,15.333-0.893,23.266,0.552c3.014,0.072,5.496,2.308,5.971,5.186c-0.611,2.851-3.196,4.968-6.21,4.896
		C172.975,244.442,165.22,244.258,159.566,242.743z"/>
</g>
<path style="fill:#747487;" d="M556.644,225.316c0,2.669-2.164,4.833-4.833,4.833c-2.669,0-4.833-2.164-4.833-4.833
	c0-2.669,2.164-4.833,4.833-4.833C554.48,220.482,556.644,222.646,556.644,225.316z"/>
<g>
	<g>
		<path style="fill:#AF8A80;" d="M202.944,184.239l0.565,0.154c1.011-0.482,3.073,0.379,6.886,2.443l17.461,8.692
			c0.146,0.079,0.256,0.2,0.339,0.332l4.557,1.256c0.753,0.207,1.195,0.986,0.987,1.738c-0.207,0.753-0.986,1.195-1.738,0.987
			l-4.557-1.256c-0.139,0.071-0.294,0.118-0.461,0.111l-19.449-1.479c-4.738-0.197-6.938-0.558-7.296-1.709
			c-0.644,0.242-1.362,0.298-2.072,0.102L70.612,160.463l-0.815,2.957l31.094,8.568l0.094-0.342
			c0.117-0.426,0.562-0.678,0.988-0.561l2.74,0.755c0.426,0.117,0.679,0.562,0.561,0.988l-0.094,0.342l-0.365,1.326l-0.258,0.936
			c-0.136,0.492-0.65,0.784-1.142,0.649l-36.9-10.168l-4.079-1.124l-10.158-2.799c-1.327-0.366-2.113-1.75-1.748-3.077l1.02-3.702
			l-1.508-0.416c-1.269-0.35-2.158-1.394-2.401-2.607l-6.791-1.871c-2.369-0.653-3.76-3.102-3.107-5.471
			c0.653-2.369,3.102-3.76,5.471-3.107l6.791,1.871c0.83-0.918,2.129-1.359,3.398-1.009l148.124,40.816
			C202.081,183.569,202.554,183.865,202.944,184.239z"/>
		<g>
			<path style="fill:#FFFFFF;stroke:#494242;stroke-width:8.8975;stroke-linecap:round;stroke-miterlimit:10;" d="M67.802,146.468
				l-19.777-5.449L67.802,146.468z"/>
			<path style="fill:#494242;" d="M57.771,149.376l-1.248,4.527c-0.366,1.327,0.421,2.712,1.748,3.077l14.237,3.923
				c1.327,0.366,2.712-0.421,3.077-1.748l1.247-4.527c0.366-1.327-0.421-2.712-1.748-3.077l-14.237-3.923
				C59.522,147.262,58.137,148.049,57.771,149.376z"/>
			<path style="fill:#494242;" d="M68.158,157.271l-0.376,1.366c-0.136,0.492,0.156,1.007,0.649,1.142l40.979,11.292
				c0.492,0.136,1.006-0.156,1.142-0.649l0.623-2.262L69.3,156.622C68.807,156.487,68.293,156.779,68.158,157.271z"/>
			<path style="fill:#494242;" d="M106.98,166.637l-0.46,1.668c-0.117,0.426,0.135,0.87,0.561,0.988l2.74,0.755
				c0.426,0.117,0.87-0.135,0.988-0.561l0.46-1.668c0.117-0.426-0.135-0.87-0.561-0.988l-2.74-0.755
				C107.542,165.958,107.097,166.211,106.98,166.637z"/>
			<path style="fill:#2ECCCC;" d="M55.241,139.951l-1.565,5.68c-0.494,1.791,0.568,3.661,2.36,4.155l148.124,40.816
				c1.791,0.494,3.661-0.568,4.155-2.36l1.565-5.68c0.494-1.791-0.568-3.661-2.36-4.155L59.396,137.591
				C57.604,137.098,55.735,138.159,55.241,139.951z"/>
			
				<line style="fill:none;stroke:#76FFFF;stroke-width:3;stroke-linecap:round;stroke-miterlimit:10;" x1="62.22" y1="142.885" x2="200.944" y2="180.57"/>
			
				<line style="fill:none;stroke:#5D5E66;stroke-width:2.8273;stroke-linecap:round;stroke-miterlimit:10;" x1="53.592" y1="140.218" x2="47.459" y2="138.528"/>
		</g>
	</g>
	<path style="fill:#1DA8B2;" d="M208.314,188.242l1.565-5.68c0.494-1.791-0.568-3.661-2.359-4.155l-2.71-0.747
		c0.631,0.174,1.004,0.832,0.83,1.462l-2.729,9.902c-0.174,0.63-0.831,1.004-1.462,0.83l2.71,0.747
		C205.951,191.095,207.821,190.034,208.314,188.242z"/>
	
		<line style="fill:none;stroke:#494242;stroke-width:2.8273;stroke-linecap:round;stroke-miterlimit:10;" x1="228.321" y1="190.699" x2="237.406" y2="193.203"/>
	<path style="fill:#2ECCCC;" d="M207.85,180.059l-2.561,9.293c-0.515,1.868,1.491,2.35,7.275,2.59l19.449,1.479
		c0.409,0.017,0.786-0.242,0.878-0.574l0.455-1.652c0.091-0.332-0.1-0.748-0.46-0.943l-17.461-8.692
		C210.334,178.805,208.365,178.192,207.85,180.059z"/>
	
		<line style="fill:none;stroke:#66EFF2;stroke-width:2.8273;stroke-linecap:round;stroke-miterlimit:10;" x1="209.914" y1="181.474" x2="231.33" y2="191.529"/>
</g>
<ellipse transform="matrix(0.608 -0.794 0.794 0.608 -453.8933 555.719)" style="fill:#FFB287;" cx="335.772" cy="737.47" rx="28.72" ry="16.501"/>
<path style="opacity:0.42;fill:#565560;" d="M402.841,715.782c-1.65-3.93-5.63-6.17-9.66-5.78c-0.93,0.08-1.87,0.31-2.78,0.69
	l-9.21,4.28l-11.72,5.46l-1.26,0.58l-10.19,4.75h-0.01l5.24,16.89l3.543,11.396c3.07-4.46,4.617-10.926,5.727-15.276l2.34-0.98
	l11.87-4.97l9.01-3.77l2.01-0.84c2.93-1.23,4.92-3.76,5.58-6.63c0.07-0.29,0.13-0.58,0.16-0.88
	C403.721,719.092,403.521,717.393,402.841,715.782z"/>
<polyline style="fill:none;stroke:#FFB287;stroke-width:19;stroke-linecap:round;stroke-linejoin:round;stroke-miterlimit:10;" points="
	388.547,703.683 342.167,723.149 332.656,717.188 "/>
<path style="fill:#AF8A80;" d="M317.664,152.452l0.74,41.11l-11.92-3.16l-111.8-190.4h45l79.69,137.88l-14.97,7.85
	C309.344,147.362,313.774,149.582,317.664,152.452z"/>
<path style="fill:#888888;" d="M365.784,206.102l-47.38-12.54l-0.74-41.11c6.97,5.13,12.2,12.32,15.47,21.82l36.56,9.25
	C377.565,189.482,375.315,204.612,365.784,206.102z"/>
<polyline style="fill:none;stroke:#FFB287;stroke-width:19;stroke-linecap:round;stroke-linejoin:round;stroke-miterlimit:10;" points="
	358.895,196.135 309.586,186.202 301.437,193.923 "/>
<path style="fill:#FFB287;" d="M306.479,202.047l-8.483,12.656c-5.735,3.155-5.555,8.715-13.392-1.957l-48.524-94.207
	c-3.155-5.735-1.044-13.008,4.691-16.163l8.352-4.595c5.735-3.155,13.008-1.044,16.163,4.691l45.884,83.412
	C314.325,191.619,310.978,197.647,306.479,202.047z"/>
<polygon style="fill:#DB926E;" points="281.105,131.663 250.891,149.198 258.665,162.385 288.505,144.682 "/>
<g>
	<polygon style="fill:#C7D1E0;" points="183.475,55.235 228.556,28.187 237.613,22.749 302.99,131.707 293.942,137.143 
		248.862,164.191 	"/>
	
		<rect x="212.423" y="32.654" transform="matrix(0.8575 -0.5145 0.5145 0.8575 -15.4716 136.52)" style="fill:#FFFFFF;" width="52.572" height="127.07"/>
	<polygon style="fill:#49555B;" points="170.046,36.864 202.644,0 225.139,0 293.339,111.072 278.159,120.18 235.433,145.82 	"/>
	<polygon style="fill:#272A30;" points="146.655,0 204.991,0 278.159,120.18 235.433,145.82 	"/>
</g>
<ellipse transform="matrix(0.6584 -0.7527 0.7527 0.6584 -24.3006 287.9253)" style="fill:#FFB287;" cx="305.058" cy="170.735" rx="16.501" ry="28.72"/>
<g>
	<path style="fill-rule:evenodd;clip-rule:evenodd;fill:#AF8A80;" d="M304.401,332.911c-2.069-4.297-8.134-5.667-13.546-3.061
		L46.457,447.54c-5.412,2.606-8.122,8.202-6.053,12.499l82.091,172.246c2.069,4.297,8.134,5.667,13.546,3.061l244.398-117.69
		c5.412-2.606,8.122-8.202,6.053-12.499L304.401,332.911z"/>
	<path style="fill-rule:evenodd;clip-rule:evenodd;fill:#EAEAEA;" d="M310.672,371.285c-1.433-2.976-5.582-3.949-9.267-2.175
		L39.487,495.237c-3.685,1.775-5.511,5.625-4.078,8.601l63.072,130.977c1.433,2.976,5.582,3.949,9.267,2.175l261.918-126.127
		c3.685-1.775,5.511-5.626,4.078-8.601L310.672,371.285z"/>
	<path style="fill-rule:evenodd;clip-rule:evenodd;fill:#474A4C;" d="M102.176,573.841l221.595-106.709
		c4.349-2.094,6.177-7.317,4.082-11.666l-27.73-57.585c-2.094-4.349-7.318-6.177-11.666-4.082L66.862,500.507
		c-4.349,2.094-6.177,7.317-4.083,11.666l27.73,57.584C92.604,574.107,97.827,575.935,102.176,573.841z"/>
	<path style="opacity:0.74;fill-rule:evenodd;clip-rule:evenodd;fill:#888888;" d="M211.895,574.091l43.66-21.024
		c4.232-2.038,6.01-7.12,3.973-11.352l-8.275-17.184c-2.038-4.232-7.12-6.01-11.352-3.973l-43.66,21.024
		c-4.232,2.038-6.01,7.121-3.973,11.352l8.275,17.184C202.58,574.351,207.663,576.129,211.895,574.091z"/>
	<path style="fill-rule:evenodd;clip-rule:evenodd;fill:#888888;" d="M162.997,539.43l115.455-55.597
		c1.39-0.669,1.975-2.339,1.305-3.73l-1.944-4.037c-0.669-1.39-2.339-1.975-3.73-1.305l-115.455,55.598
		c-1.39,0.669-1.975,2.339-1.305,3.73l1.944,4.037C159.937,539.515,161.607,540.099,162.997,539.43z"/>
	<g>
		<path style="fill-rule:evenodd;clip-rule:evenodd;fill:#888888;" d="M283.156,414.912l10.882-5.24
			c1.39-0.669,1.975-2.339,1.305-3.73l-2.986-6.2c-0.669-1.39-2.339-1.975-3.73-1.305l-10.882,5.24
			c-1.39,0.67-1.975,2.339-1.305,3.73l2.986,6.2C280.096,414.998,281.766,415.582,283.156,414.912z"/>
		<path style="fill-rule:evenodd;clip-rule:evenodd;fill:#888888;" d="M262.266,424.972l10.882-5.24
			c1.39-0.67,1.975-2.339,1.305-3.73l-2.986-6.2c-0.67-1.39-2.339-1.975-3.73-1.305l-10.882,5.24c-1.39,0.67-1.975,2.339-1.305,3.73
			l2.986,6.2C259.206,425.057,260.876,425.642,262.266,424.972z"/>
		<path style="fill-rule:evenodd;clip-rule:evenodd;fill:#888888;" d="M241.375,435.032l10.882-5.24
			c1.39-0.669,1.975-2.339,1.305-3.73l-2.986-6.2c-0.669-1.39-2.339-1.975-3.73-1.305l-10.882,5.24
			c-1.39,0.669-1.975,2.339-1.305,3.73l2.986,6.2C238.315,435.117,239.985,435.702,241.375,435.032z"/>
		<path style="fill-rule:evenodd;clip-rule:evenodd;fill:#888888;" d="M220.485,445.092l10.882-5.24
			c1.39-0.669,1.975-2.339,1.305-3.73l-2.986-6.2c-0.67-1.39-2.339-1.975-3.73-1.305l-10.882,5.24
			c-1.39,0.67-1.975,2.339-1.305,3.73l2.986,6.2C217.425,445.177,219.095,445.762,220.485,445.092z"/>
		<path style="fill-rule:evenodd;clip-rule:evenodd;fill:#888888;" d="M199.594,455.152l10.882-5.24
			c1.39-0.67,1.975-2.339,1.305-3.73l-2.986-6.2c-0.669-1.39-2.339-1.975-3.73-1.305l-10.882,5.24
			c-1.39,0.669-1.975,2.339-1.305,3.73l2.986,6.201C196.534,455.237,198.204,455.821,199.594,455.152z"/>
		<path style="fill-rule:evenodd;clip-rule:evenodd;fill:#888888;" d="M178.704,465.212l10.882-5.24
			c1.39-0.669,1.975-2.339,1.305-3.73l-2.986-6.201c-0.669-1.39-2.339-1.975-3.73-1.305l-10.882,5.24
			c-1.39,0.669-1.975,2.339-1.305,3.73l2.986,6.2C175.644,465.297,177.314,465.881,178.704,465.212z"/>
		<path style="fill-rule:evenodd;clip-rule:evenodd;fill:#888888;" d="M157.813,475.272l10.882-5.24
			c1.39-0.67,1.975-2.339,1.305-3.73l-2.986-6.2c-0.669-1.39-2.339-1.975-3.73-1.305l-10.882,5.24
			c-1.39,0.67-1.975,2.339-1.305,3.73l2.986,6.2C154.753,475.357,156.423,475.941,157.813,475.272z"/>
		<path style="fill-rule:evenodd;clip-rule:evenodd;fill:#888888;" d="M136.923,485.331l10.882-5.24
			c1.39-0.669,1.975-2.339,1.305-3.73l-2.986-6.2c-0.669-1.39-2.339-1.975-3.73-1.305l-10.882,5.24
			c-1.39,0.669-1.975,2.339-1.305,3.73l2.986,6.2C133.863,485.417,135.533,486.001,136.923,485.331z"/>
		<path style="fill-rule:evenodd;clip-rule:evenodd;fill:#888888;" d="M116.032,495.391l10.882-5.24
			c1.39-0.669,1.975-2.339,1.305-3.73l-2.986-6.2c-0.669-1.39-2.339-1.975-3.73-1.305l-10.882,5.24
			c-1.39,0.669-1.975,2.339-1.305,3.73l2.986,6.2C112.972,495.476,114.642,496.061,116.032,495.391z"/>
		<path style="fill-rule:evenodd;clip-rule:evenodd;fill:#888888;" d="M95.142,505.451l10.882-5.24
			c1.39-0.669,1.975-2.339,1.305-3.73l-2.986-6.2c-0.67-1.39-2.339-1.975-3.73-1.305l-10.882,5.24
			c-1.39,0.67-1.975,2.339-1.305,3.73l2.986,6.201C92.082,505.536,93.752,506.121,95.142,505.451z"/>
		<path style="fill-rule:evenodd;clip-rule:evenodd;fill:#888888;" d="M74.251,515.511l10.882-5.24
			c1.39-0.669,1.975-2.339,1.305-3.73l-2.986-6.201c-0.67-1.39-2.339-1.975-3.73-1.305l-10.882,5.24
			c-1.39,0.669-1.975,2.339-1.305,3.73l2.986,6.2C71.191,515.596,72.861,516.18,74.251,515.511z"/>
	</g>
	<path style="fill-rule:evenodd;clip-rule:evenodd;fill:#888888;" d="M42.114,497.858l260.043-125.224
		c5.169-2.489,8.378-8.284,7.154-12.995l-9.15-35.229c-1.353-5.208-6.94-7.323-12.464-4.663L9.783,453.577
		c-5.524,2.66-7.354,8.347-4.126,12.652l21.837,29.12C30.414,499.242,36.946,500.347,42.114,497.858z"/>
	<path style="fill-rule:evenodd;clip-rule:evenodd;fill:#C1C1C1;" d="M42.114,497.858l260.043-125.224
		c5.169-2.489,8.478-7.795,7.381-11.888l-8.134-30.358c-1.193-4.451-6.598-5.961-12.061-3.33L14.473,459.423
		c-5.464,2.631-7.653,7.798-4.917,11.506l18.662,25.288C30.734,499.626,36.946,500.347,42.114,497.858z"/>
	<path style="fill-rule:evenodd;clip-rule:evenodd;fill:#FFFFFF;" d="M48.354,488.379L291.52,371.283
		c3.999-1.926,6.374-6.659,5.267-10.551l-4.605-16.193c-1.163-4.089-5.52-5.829-9.671-3.829L30.069,462.272
		c-4.152,1.999-5.508,6.49-3.036,9.949l9.789,13.697C39.175,489.21,44.355,490.305,48.354,488.379z"/>
	<g>
		<path style="fill-rule:evenodd;clip-rule:evenodd;fill:#888888;" d="M289.937,428.993l10.882-5.24
			c1.39-0.67,1.975-2.339,1.305-3.73l-2.986-6.2c-0.669-1.39-2.339-1.975-3.73-1.305l-10.882,5.24
			c-1.39,0.669-1.975,2.339-1.305,3.73l2.986,6.2C286.877,429.078,288.547,429.663,289.937,428.993z"/>
		<path style="fill-rule:evenodd;clip-rule:evenodd;fill:#888888;" d="M269.046,439.053l10.882-5.24
			c1.39-0.669,1.975-2.339,1.305-3.73l-2.986-6.2c-0.669-1.39-2.339-1.975-3.73-1.305l-10.882,5.24
			c-1.39,0.669-1.975,2.339-1.305,3.73l2.986,6.2C265.986,439.138,267.656,439.723,269.046,439.053z"/>
		<path style="fill-rule:evenodd;clip-rule:evenodd;fill:#888888;" d="M248.156,449.113l10.882-5.24
			c1.39-0.669,1.975-2.339,1.305-3.73l-2.986-6.2c-0.669-1.39-2.339-1.975-3.73-1.305l-10.882,5.24
			c-1.39,0.67-1.975,2.339-1.305,3.73l2.986,6.2C245.096,449.198,246.766,449.782,248.156,449.113z"/>
		<path style="fill-rule:evenodd;clip-rule:evenodd;fill:#888888;" d="M227.265,459.173l10.882-5.24
			c1.39-0.669,1.975-2.339,1.305-3.73l-2.986-6.2c-0.669-1.39-2.339-1.975-3.73-1.305l-10.882,5.24
			c-1.39,0.669-1.975,2.339-1.305,3.73l2.986,6.2C224.205,459.258,225.875,459.842,227.265,459.173z"/>
		<path style="fill-rule:evenodd;clip-rule:evenodd;fill:#888888;" d="M206.375,469.233l10.882-5.24
			c1.39-0.67,1.975-2.339,1.305-3.73l-2.986-6.2c-0.669-1.39-2.339-1.975-3.73-1.305l-10.882,5.24
			c-1.39,0.67-1.975,2.339-1.305,3.73l2.986,6.2C203.315,469.318,204.985,469.902,206.375,469.233z"/>
		<path style="fill-rule:evenodd;clip-rule:evenodd;fill:#888888;" d="M185.484,479.292l10.882-5.24
			c1.39-0.669,1.975-2.339,1.305-3.73l-2.986-6.2c-0.669-1.39-2.339-1.975-3.73-1.305l-10.882,5.24
			c-1.39,0.67-1.975,2.339-1.305,3.73l2.986,6.2C182.424,479.378,184.094,479.962,185.484,479.292z"/>
		<path style="fill-rule:evenodd;clip-rule:evenodd;fill:#888888;" d="M164.594,489.352l10.882-5.24
			c1.39-0.669,1.975-2.339,1.305-3.73l-2.986-6.2c-0.67-1.39-2.339-1.975-3.73-1.305l-10.882,5.24
			c-1.39,0.669-1.975,2.339-1.305,3.73l2.986,6.2C161.534,489.437,163.204,490.022,164.594,489.352z"/>
		<path style="fill-rule:evenodd;clip-rule:evenodd;fill:#888888;" d="M143.703,499.412l10.882-5.24
			c1.39-0.669,1.975-2.339,1.305-3.73l-2.986-6.2c-0.669-1.39-2.339-1.975-3.73-1.305l-10.882,5.24
			c-1.39,0.669-1.975,2.339-1.305,3.73l2.986,6.2C140.643,499.497,142.313,500.082,143.703,499.412z"/>
		<path style="fill-rule:evenodd;clip-rule:evenodd;fill:#888888;" d="M122.813,509.472l10.882-5.24
			c1.39-0.67,1.975-2.339,1.305-3.73l-2.986-6.2c-0.669-1.39-2.339-1.975-3.73-1.305l-10.882,5.24
			c-1.39,0.669-1.975,2.339-1.305,3.73l2.986,6.2C119.753,509.557,121.423,510.141,122.813,509.472z"/>
		<path style="fill-rule:evenodd;clip-rule:evenodd;fill:#888888;" d="M101.922,519.532l10.882-5.24
			c1.39-0.67,1.975-2.339,1.305-3.73l-2.986-6.2c-0.67-1.39-2.339-1.975-3.73-1.305l-10.882,5.24c-1.39,0.67-1.975,2.339-1.305,3.73
			l2.986,6.2C98.862,519.617,100.532,520.201,101.922,519.532z"/>
		<path style="fill-rule:evenodd;clip-rule:evenodd;fill:#888888;" d="M81.032,529.592l10.882-5.24
			c1.39-0.669,1.975-2.339,1.305-3.73l-2.986-6.2c-0.67-1.39-2.339-1.975-3.73-1.305l-10.882,5.24
			c-1.39,0.669-1.975,2.339-1.305,3.73l2.986,6.201C77.972,529.677,79.642,530.261,81.032,529.592z"/>
	</g>
	<g>
		<path style="fill-rule:evenodd;clip-rule:evenodd;fill:#888888;" d="M303.498,457.155l10.882-5.24
			c1.39-0.67,1.975-2.339,1.305-3.73l-2.986-6.2c-0.669-1.39-2.339-1.975-3.73-1.305l-10.882,5.24
			c-1.39,0.67-1.975,2.339-1.305,3.73l2.986,6.2C300.438,457.24,302.108,457.824,303.498,457.155z"/>
		<path style="fill-rule:evenodd;clip-rule:evenodd;fill:#888888;" d="M282.608,467.215l10.882-5.24
			c1.39-0.669,1.975-2.339,1.305-3.73l-2.986-6.2c-0.67-1.39-2.339-1.975-3.73-1.305l-10.882,5.24
			c-1.39,0.669-1.975,2.339-1.305,3.73l2.986,6.2C279.548,467.3,281.217,467.884,282.608,467.215z"/>
		<path style="fill-rule:evenodd;clip-rule:evenodd;fill:#888888;" d="M261.717,477.275l10.882-5.24
			c1.39-0.669,1.975-2.339,1.305-3.73l-2.986-6.2c-0.67-1.39-2.339-1.975-3.73-1.305l-10.882,5.24
			c-1.39,0.669-1.975,2.339-1.305,3.73l2.986,6.2C258.657,477.36,260.327,477.944,261.717,477.275z"/>
		<path style="fill-rule:evenodd;clip-rule:evenodd;fill:#888888;" d="M240.827,487.334l10.882-5.24
			c1.39-0.669,1.975-2.339,1.305-3.73l-2.986-6.2c-0.67-1.39-2.339-1.975-3.73-1.305l-10.882,5.24
			c-1.39,0.669-1.975,2.339-1.305,3.73l2.986,6.201C237.767,487.419,239.436,488.004,240.827,487.334z"/>
		<path style="fill-rule:evenodd;clip-rule:evenodd;fill:#888888;" d="M219.936,497.394l10.882-5.24
			c1.39-0.669,1.975-2.339,1.305-3.73l-2.986-6.201c-0.67-1.39-2.339-1.975-3.73-1.305l-10.882,5.24
			c-1.39,0.669-1.975,2.339-1.305,3.73l2.986,6.2C216.876,497.479,218.546,498.064,219.936,497.394z"/>
		<path style="fill-rule:evenodd;clip-rule:evenodd;fill:#888888;" d="M199.046,507.454l10.882-5.24
			c1.39-0.669,1.975-2.339,1.305-3.73l-2.986-6.2c-0.67-1.39-2.339-1.975-3.73-1.305l-10.882,5.24
			c-1.39,0.669-1.975,2.339-1.305,3.73l2.986,6.2C195.986,507.539,197.655,508.124,199.046,507.454z"/>
		<path style="fill-rule:evenodd;clip-rule:evenodd;fill:#888888;" d="M178.155,517.514l10.882-5.24
			c1.39-0.669,1.975-2.339,1.305-3.73l-2.986-6.2c-0.67-1.39-2.339-1.975-3.73-1.305l-10.882,5.24
			c-1.39,0.669-1.975,2.339-1.305,3.73l2.986,6.2C175.095,517.599,176.765,518.183,178.155,517.514z"/>
		<path style="fill-rule:evenodd;clip-rule:evenodd;fill:#888888;" d="M157.265,527.574l10.882-5.24
			c1.39-0.669,1.975-2.339,1.305-3.73l-2.986-6.2c-0.67-1.39-2.339-1.975-3.73-1.305l-10.882,5.24
			c-1.39,0.67-1.975,2.339-1.305,3.73l2.986,6.2C154.205,527.659,155.874,528.243,157.265,527.574z"/>
		<path style="fill-rule:evenodd;clip-rule:evenodd;fill:#888888;" d="M136.374,537.633l10.882-5.24
			c1.39-0.669,1.975-2.339,1.305-3.73l-2.986-6.2c-0.67-1.39-2.339-1.975-3.73-1.305l-10.882,5.24
			c-1.39,0.669-1.975,2.339-1.305,3.73l2.986,6.201C133.314,537.719,134.984,538.303,136.374,537.633z"/>
		<path style="fill-rule:evenodd;clip-rule:evenodd;fill:#888888;" d="M115.484,547.693l10.882-5.24
			c1.39-0.669,1.975-2.339,1.305-3.73l-2.986-6.201c-0.67-1.39-2.339-1.975-3.73-1.305l-10.882,5.24
			c-1.39,0.669-1.975,2.339-1.305,3.73l2.986,6.2C112.424,547.779,114.093,548.363,115.484,547.693z"/>
		<path style="fill-rule:evenodd;clip-rule:evenodd;fill:#888888;" d="M94.593,557.753l10.882-5.24
			c1.39-0.669,1.975-2.339,1.305-3.73l-2.986-6.2c-0.67-1.39-2.339-1.975-3.73-1.305l-10.882,5.24
			c-1.39,0.669-1.975,2.339-1.305,3.73l2.986,6.2C91.533,557.838,93.203,558.423,94.593,557.753z"/>
	</g>
	<g>
		<path style="fill-rule:evenodd;clip-rule:evenodd;fill:#888888;" d="M296.717,443.074l10.882-5.24
			c1.39-0.669,1.975-2.339,1.305-3.73l-2.986-6.2c-0.669-1.39-2.339-1.975-3.73-1.305l-10.882,5.24
			c-1.39,0.669-1.975,2.339-1.305,3.73l2.986,6.201C293.657,443.159,295.327,443.743,296.717,443.074z"/>
		<path style="fill-rule:evenodd;clip-rule:evenodd;fill:#888888;" d="M275.827,453.134l10.882-5.24
			c1.39-0.669,1.975-2.339,1.305-3.73l-2.986-6.201c-0.669-1.39-2.339-1.975-3.73-1.305l-10.882,5.24
			c-1.39,0.67-1.975,2.339-1.305,3.73l2.986,6.2C272.767,453.219,274.437,453.803,275.827,453.134z"/>
		<path style="fill-rule:evenodd;clip-rule:evenodd;fill:#888888;" d="M254.937,463.194l10.882-5.24
			c1.39-0.67,1.975-2.339,1.305-3.73l-2.986-6.2c-0.669-1.39-2.339-1.975-3.73-1.305l-10.882,5.24
			c-1.39,0.669-1.975,2.339-1.305,3.73l2.986,6.2C251.876,463.279,253.546,463.863,254.937,463.194z"/>
		<path style="fill-rule:evenodd;clip-rule:evenodd;fill:#888888;" d="M234.046,473.254l10.882-5.24
			c1.39-0.669,1.975-2.339,1.305-3.73l-2.986-6.2c-0.669-1.39-2.339-1.975-3.73-1.305l-10.882,5.24
			c-1.39,0.669-1.975,2.339-1.305,3.73l2.986,6.2C230.986,473.339,232.656,473.923,234.046,473.254z"/>
		<path style="fill-rule:evenodd;clip-rule:evenodd;fill:#888888;" d="M213.156,483.313l10.882-5.24
			c1.39-0.67,1.975-2.339,1.305-3.73l-2.986-6.2c-0.67-1.39-2.339-1.975-3.73-1.305l-10.882,5.24
			c-1.39,0.669-1.975,2.339-1.305,3.73l2.986,6.2C210.095,483.398,211.765,483.983,213.156,483.313z"/>
		<path style="fill-rule:evenodd;clip-rule:evenodd;fill:#888888;" d="M192.265,493.373l10.882-5.24
			c1.39-0.669,1.975-2.339,1.305-3.73l-2.986-6.2c-0.669-1.39-2.339-1.975-3.73-1.305l-10.882,5.24
			c-1.39,0.669-1.975,2.339-1.305,3.73l2.986,6.201C189.205,493.458,190.875,494.043,192.265,493.373z"/>
		<path style="fill-rule:evenodd;clip-rule:evenodd;fill:#888888;" d="M171.375,503.433l10.882-5.24
			c1.39-0.669,1.975-2.339,1.305-3.73l-2.986-6.201c-0.669-1.39-2.339-1.975-3.73-1.305l-10.882,5.24
			c-1.39,0.669-1.975,2.339-1.305,3.73l2.986,6.2C168.314,503.518,169.984,504.103,171.375,503.433z"/>
		<path style="fill-rule:evenodd;clip-rule:evenodd;fill:#888888;" d="M150.484,513.493l10.882-5.24
			c1.39-0.669,1.975-2.339,1.305-3.73l-2.986-6.2c-0.669-1.39-2.339-1.975-3.73-1.305l-10.882,5.24
			c-1.39,0.669-1.975,2.339-1.305,3.73l2.986,6.2C147.424,513.578,149.094,514.162,150.484,513.493z"/>
		<path style="fill-rule:evenodd;clip-rule:evenodd;fill:#888888;" d="M129.594,523.553l10.882-5.24
			c1.39-0.669,1.975-2.339,1.305-3.73l-2.986-6.2c-0.669-1.39-2.339-1.975-3.73-1.305l-10.882,5.24
			c-1.39,0.669-1.975,2.339-1.305,3.73l2.986,6.2C126.533,523.638,128.203,524.222,129.594,523.553z"/>
		<path style="fill-rule:evenodd;clip-rule:evenodd;fill:#888888;" d="M108.703,533.613l10.882-5.24
			c1.39-0.669,1.975-2.339,1.305-3.73l-2.986-6.2c-0.67-1.39-2.339-1.975-3.73-1.305l-10.882,5.24
			c-1.39,0.67-1.975,2.339-1.305,3.73l2.986,6.2C105.643,533.698,107.313,534.282,108.703,533.613z"/>
		<path style="fill-rule:evenodd;clip-rule:evenodd;fill:#888888;" d="M87.813,543.672l10.882-5.24
			c1.39-0.669,1.975-2.339,1.305-3.73l-2.986-6.2c-0.67-1.39-2.339-1.975-3.73-1.305l-10.882,5.24
			c-1.39,0.669-1.975,2.339-1.305,3.73l2.986,6.201C84.752,543.758,86.422,544.342,87.813,543.672z"/>
		<path style="fill-rule:evenodd;clip-rule:evenodd;fill:#888888;" d="M88.316,543.43l12.47-6.005
			c1.39-0.669,1.975-2.339,1.305-3.73l-2.986-6.2c-0.67-1.39-2.339-1.975-3.73-1.305l-12.47,6.005
			c-1.39,0.67-1.975,2.339-1.305,3.73l2.986,6.2C85.256,543.515,86.926,544.1,88.316,543.43z"/>
		<path style="fill-rule:evenodd;clip-rule:evenodd;fill:#888888;" d="M88.819,543.188l14.059-6.77
			c1.39-0.669,1.975-2.339,1.305-3.73l-2.986-6.2c-0.669-1.39-2.339-1.975-3.73-1.305l-14.059,6.77
			c-1.39,0.669-1.975,2.339-1.305,3.73l2.986,6.2C85.759,543.273,87.429,543.857,88.819,543.188z"/>
		<path style="fill-rule:evenodd;clip-rule:evenodd;fill:#888888;" d="M89.322,542.945l15.647-7.535
			c1.39-0.67,1.975-2.339,1.305-3.73l-2.986-6.2c-0.67-1.39-2.339-1.975-3.73-1.305l-15.647,7.535
			c-1.39,0.669-1.975,2.339-1.305,3.73l2.986,6.201C86.262,543.031,87.932,543.615,89.322,542.945z"/>
		<path style="fill-rule:evenodd;clip-rule:evenodd;fill:#888888;" d="M89.826,542.703l17.236-8.3
			c1.39-0.669,1.975-2.339,1.305-3.73l-2.986-6.2c-0.67-1.39-2.339-1.975-3.73-1.305l-17.236,8.3c-1.39,0.67-1.975,2.339-1.305,3.73
			l2.986,6.2C86.765,542.788,88.435,543.373,89.826,542.703z"/>
		<path style="fill-rule:evenodd;clip-rule:evenodd;fill:#888888;" d="M90.329,542.461l18.825-9.065
			c1.39-0.669,1.975-2.339,1.305-3.73l-2.986-6.201c-0.67-1.39-2.339-1.975-3.73-1.305l-18.825,9.065
			c-1.39,0.669-1.975,2.339-1.305,3.73l2.986,6.2C87.269,542.546,88.939,543.13,90.329,542.461z"/>
		<path style="fill-rule:evenodd;clip-rule:evenodd;fill:#888888;" d="M90.832,542.218l20.413-9.83
			c1.39-0.67,1.975-2.339,1.305-3.73l-2.986-6.2c-0.67-1.39-2.339-1.975-3.73-1.305l-20.413,9.83
			c-1.39,0.669-1.975,2.339-1.305,3.73l2.986,6.2C87.772,542.304,89.442,542.888,90.832,542.218z"/>
		<path style="fill-rule:evenodd;clip-rule:evenodd;fill:#888888;" d="M91.335,541.976l22.002-10.595
			c1.39-0.669,1.975-2.339,1.305-3.73l-2.986-6.2c-0.67-1.39-2.339-1.975-3.73-1.305l-22.002,10.595
			c-1.39,0.669-1.975,2.339-1.305,3.73l2.986,6.2C88.275,542.061,89.945,542.646,91.335,541.976z"/>
		<path style="fill-rule:evenodd;clip-rule:evenodd;fill:#888888;" d="M91.839,541.734l23.59-11.36
			c1.39-0.669,1.975-2.339,1.305-3.73l-2.986-6.2c-0.67-1.39-2.339-1.975-3.73-1.305l-23.59,11.36
			c-1.39,0.67-1.975,2.339-1.305,3.73l2.986,6.201C88.778,541.819,90.448,542.403,91.839,541.734z"/>
		<path style="fill-rule:evenodd;clip-rule:evenodd;fill:#888888;" d="M92.342,541.491l25.179-12.125
			c1.39-0.669,1.975-2.339,1.305-3.73l-2.986-6.2c-0.67-1.39-2.339-1.975-3.73-1.305l-25.179,12.125
			c-1.39,0.67-1.975,2.339-1.305,3.73l2.986,6.2C89.282,541.576,90.951,542.161,92.342,541.491z"/>
		<path style="fill-rule:evenodd;clip-rule:evenodd;fill:#888888;" d="M92.845,541.249l26.767-12.89
			c1.39-0.67,1.975-2.339,1.305-3.73l-2.986-6.2c-0.67-1.39-2.339-1.975-3.73-1.305l-26.767,12.89
			c-1.39,0.669-1.975,2.339-1.305,3.73l2.986,6.2C89.785,541.334,91.455,541.919,92.845,541.249z"/>
	</g>
	<path style="fill-rule:evenodd;clip-rule:evenodd;fill:#888888;" d="M288.634,479.185l31.344-15.094
		c1.39-0.67,1.975-2.339,1.305-3.73l-2.144-4.453c-0.67-1.39-2.339-1.975-3.73-1.305l-31.344,15.094
		c-1.39,0.669-1.975,2.339-1.305,3.73l2.144,4.453C285.573,479.271,287.243,479.855,288.634,479.185z"/>
	<path style="fill-rule:evenodd;clip-rule:evenodd;fill:#888888;" d="M142.133,549.477l10.777-5.19
		c1.39-0.669,1.975-2.339,1.305-3.73l-1.944-4.037c-0.669-1.39-2.339-1.975-3.73-1.305l-10.777,5.19
		c-1.39,0.669-1.975,2.339-1.305,3.73l1.944,4.037C139.073,549.562,140.742,550.147,142.133,549.477z"/>
	<path style="fill-rule:evenodd;clip-rule:evenodd;fill:#888888;" d="M100.307,569.618l10.882-5.24
		c1.39-0.669,1.975-2.339,1.305-3.73l-1.944-4.037c-0.67-1.39-2.339-1.975-3.73-1.305l-10.882,5.24
		c-1.39,0.669-1.975,2.339-1.305,3.73l1.944,4.037C97.247,569.704,98.917,570.288,100.307,569.618z"/>
	<path style="fill-rule:evenodd;clip-rule:evenodd;fill:#888888;" d="M121.284,559.517l10.882-5.24
		c1.39-0.67,1.975-2.339,1.305-3.73l-1.944-4.037c-0.669-1.39-2.339-1.975-3.73-1.305l-10.882,5.24
		c-1.39,0.669-1.975,2.339-1.305,3.73l1.944,4.037C118.224,559.602,119.894,560.186,121.284,559.517z"/>
	
		<rect x="278.06" y="434.65" transform="matrix(-0.901 0.4339 -0.4339 -0.901 736.6605 713.6312)" style="fill-rule:evenodd;clip-rule:evenodd;fill:#888888;" width="17.666" height="12.463"/>
</g>
<g>
	<polygon style="fill:#EFAE6F;" points="732.242,404.302 684.803,472.053 811.018,429.498 	"/>
	
		<rect x="688.94" y="418.046" transform="matrix(0.9479 -0.3186 0.3186 0.9479 -107.7807 263.1302)" style="fill:#FFFFFF;" width="123.267" height="86.069"/>
	<g>
		<polygon style="fill:#7FB665;" points="818.875,452.693 809.148,455.917 810.496,459.683 820.07,456.475 		"/>
		<polygon style="fill:#F86E8A;" points="821.038,459.458 811.312,462.682 812.659,466.448 822.234,463.24 		"/>
		<polygon style="fill:#349CA5;" points="823.44,466.223 813.714,469.447 815.061,473.213 824.636,470.005 		"/>
	</g>
	<g>
		<polygon style="fill:#AF8A80;" points="845.261,513.436 845.261,513.436 845.261,513.436 818.259,433.091 692.003,475.522 
			692.003,475.522 692.003,475.522 692.003,475.522 719.005,555.868 719.005,555.868 731.443,551.687 845.261,513.436 		"/>
		<g>
			
				<rect x="694.787" y="448.498" transform="matrix(0.9479 -0.3186 0.3186 0.9479 -116.7098 268.1273)" style="fill-rule:evenodd;clip-rule:evenodd;fill:#F95C33;" width="133.196" height="84.761"/>
			<polygon style="fill:#FF7936;" points="759.262,484.562 711.758,552.266 838.014,509.835 			"/>
		</g>
	</g>
	<path style="fill:none;stroke:#5B5B5B;stroke-width:3;stroke-miterlimit:10;" d="M695.964,448.207l93.761-31.412L695.964,448.207z"
		/>
	<path style="fill:none;stroke:#5B5B5B;stroke-width:3;stroke-miterlimit:10;" d="M706.584,456.543l80.655-27.021L706.584,456.543z"
		/>
</g>
</svg>
